<svg width="1920" height="541" viewBox="0 0 1920 541" fill="none" xmlns="http://www.w3.org/2000/svg">
<g opacity="0.3">
<path d="M648.673 540.776C639.202 540.776 629.983 540.335 621.124 539.455C602.543 537.608 585.378 533.816 570.102 528.183C553.684 522.131 539.284 513.884 527.299 503.673C503.212 483.148 491.161 458.569 479.506 434.798C477.216 430.13 474.849 425.303 472.445 420.62C456.045 388.702 435.255 360.744 408.892 335.147C356.303 284.087 282.344 240.51 195.009 209.129C94.0064 172.838 -14.5879 154.761 -110.772 158.227C-167.304 160.265 -241.999 179.647 -275.382 212.747C-295.193 232.391 -296.791 254.192 -279.999 275.788L-280.332 275.879C-289.137 264.553 -292.973 253.199 -291.731 242.131C-290.591 231.979 -285.198 222.054 -275.697 212.634C-260.587 197.651 -235.668 184.371 -203.633 174.229C-174.032 164.859 -141.063 159.098 -110.794 158.007C-60.4578 156.195 -6.92279 160.217 48.3233 169.966C98.4032 178.804 147.82 191.916 195.199 208.94C282.586 240.338 356.589 283.939 409.208 335.03C435.585 360.644 456.386 388.618 472.797 420.553C475.204 425.236 477.571 430.065 479.857 434.732C491.502 458.486 503.545 483.048 527.6 503.543C550.862 523.365 582.351 535.374 621.186 539.233C674.966 544.579 740.274 533.398 795.879 509.323C876.011 474.63 931.624 424.132 985.408 375.299C994.836 366.739 1004.58 357.888 1014.23 349.342C1039.29 327.148 1073.22 298.39 1113.55 272.769C1154.77 246.582 1196.65 227.341 1241.6 213.946C1269.12 205.747 1298.28 200.223 1328.27 197.529C1355.97 195.039 1385.3 194.884 1415.43 197.066C1467.11 200.81 1522.78 211.387 1585.64 229.397C1709.42 264.864 1833.05 307.912 1953.12 357.349C2067.25 404.338 2179.18 457.508 2285.8 515.379L2285.55 515.54C2064.53 395.576 1828.99 299.37 1585.48 229.592C1447.91 190.171 1338.69 185.26 1241.77 214.14C1143.17 243.52 1074.29 296.54 1014.54 349.461C1004.89 358.006 995.143 366.857 985.716 375.416C931.917 424.267 876.286 474.78 796.099 509.497C770.187 520.716 741.036 529.467 711.801 534.802C696.357 537.621 681.005 539.463 666.166 540.281C660.252 540.613 654.415 540.776 648.673 540.776Z" fill="#FFE492"/>
<path d="M657.934 528.605C633.781 528.605 611.408 525.877 591.414 520.495C569.118 514.493 549.878 505.192 534.226 492.853C532.841 491.76 531.466 490.63 530.14 489.492C506.309 469.056 493.723 444.796 481.555 421.333C479.093 416.592 476.55 411.687 473.971 406.928C458.607 378.591 440.108 353.616 417.409 330.579C414.613 327.744 411.719 324.901 408.799 322.133C355.436 271.511 280.877 228.486 193.182 197.709C91.4503 162.038 -17.4517 144.708 -113.464 148.913C-169.586 151.397 -243.936 171.096 -277.462 203.942C-297.537 223.61 -299.809 245.454 -284.039 267.113L-284.376 267.2C-292.642 255.848 -296.038 244.472 -294.466 233.391C-293.023 223.215 -287.41 213.268 -277.777 203.829C-262.513 188.871 -237.667 175.577 -205.933 165.383C-176.602 155.96 -143.776 150.034 -113.497 148.696C-63.2227 146.494 -9.62903 150.132 45.793 159.507C95.9937 167.999 145.645 180.79 193.365 197.522C281.111 228.317 355.711 271.368 409.107 322.017C412.027 324.788 414.925 327.633 417.721 330.471C440.434 353.523 458.945 378.511 474.315 406.863C476.898 411.622 479.441 416.526 481.903 421.27C494.068 444.718 506.643 468.96 530.441 489.368C531.763 490.502 533.137 491.632 534.519 492.723C566.865 518.228 611.309 528.605 658.047 528.605C658.304 528.605 658.557 528.605 658.813 528.605C658.52 528.602 658.227 528.605 657.934 528.605ZM667.904 528.452C711.355 527.129 756.192 517.226 794.657 502.495C877.629 470.588 937.261 421.307 994.932 373.65C997.307 371.685 999.681 369.725 1002.06 367.765C1007.27 363.462 1013.45 358.369 1019.76 353.234C1048.06 330.206 1082.32 303.412 1121.77 279.295C1163.74 253.633 1205.68 234.591 1249.97 221.076C1277.18 212.782 1305.94 206.938 1335.44 203.709C1362.78 200.717 1391.67 199.871 1421.3 201.195C1472.49 203.483 1527.53 212.158 1589.57 227.717C1650.06 242.863 1699.78 257.121 1746.05 272.587C1811.59 294.517 1874.02 319.786 1926.45 341.61C2048.34 392.494 2167.93 450.274 2281.91 513.345L2281.66 513.504C2167.69 450.441 2048.11 392.666 1926.24 341.788C1873.82 319.966 1811.4 294.702 1745.87 272.778C1699.62 257.317 1649.91 243.063 1589.43 227.921C1454.29 194.026 1346.47 191.911 1250.14 221.272C1150.15 251.777 1078.95 305.45 1020.06 353.364C1013.74 358.499 1007.57 363.59 1002.35 367.895C999.978 369.853 997.604 371.815 995.229 373.78C937.539 421.453 877.885 470.751 794.855 502.682C774.267 510.566 752.359 516.829 729.738 521.294C708.681 525.447 687.924 527.848 667.904 528.452Z" fill="#FFE492"/>
<path d="M668.145 516.712C665.24 516.712 662.352 516.675 659.487 516.599C635.356 515.966 613.024 512.683 593.113 506.835C571.338 500.44 552.472 490.967 537.043 478.679C535.672 477.584 534.306 476.451 532.987 475.313C509.423 454.977 496.314 431.041 483.64 407.895C480.998 403.071 478.265 398.082 475.495 393.24C459.373 364.999 440.386 340.224 417.442 317.498C414.602 314.688 411.664 311.87 408.699 309.123C354.563 258.942 279.403 216.47 191.35 186.297C88.8926 151.245 -20.3173 134.66 -116.161 139.604C-170.124 142.431 -244.259 161.007 -279.507 195.106C-299.871 214.807 -302.835 236.71 -288.08 258.445L-288.421 258.525C-296.152 247.138 -299.102 235.736 -297.196 224.636C-295.445 214.427 -289.597 204.455 -279.818 194.993C-264.392 180.071 -239.627 166.772 -208.197 156.53C-179.142 147.062 -146.466 140.975 -116.194 139.389C-65.9783 136.801 -12.326 140.052 43.2682 149.053C93.5935 157.202 143.476 169.668 191.533 186.11C279.638 216.302 354.838 258.799 409.007 309.008C411.971 311.757 414.914 314.575 417.753 317.389C440.708 340.128 459.706 364.919 475.835 393.175C478.605 398.019 481.339 403.008 483.98 407.832C496.651 430.965 509.75 454.884 533.284 475.195C534.603 476.334 535.962 477.464 537.332 478.555C600.027 528.488 711.135 523.127 793.433 495.666C879.867 466.57 944.101 418.213 1006.22 371.449L1006.86 370.969C1012.87 366.435 1019.1 361.75 1025.29 357.124C1090.63 308.317 1162.45 258.158 1258.33 228.202C1285.25 219.81 1313.62 213.647 1342.63 209.885C1369.61 206.387 1398.07 204.85 1427.19 205.32C1477.97 206.137 1532.37 212.913 1593.51 226.034C1657.76 239.774 1706.12 252.404 1750.29 266.987C1813.23 287.807 1874.19 314.117 1927.98 337.329C2047.74 389.29 2165.51 447.823 2278.03 511.301L2277.77 511.457C2165.27 447.986 2047.51 389.459 1927.76 337.503C1873.98 314.295 1813.03 287.99 1750.11 267.176C1705.95 252.597 1657.62 239.972 1593.39 226.236C1460.86 197.794 1354.45 198.479 1258.5 228.391C1162.68 258.327 1090.89 308.465 1025.57 357.254C1019.38 361.881 1013.16 366.568 1007.14 371.099L1006.51 371.579C975.549 394.883 943.541 418.98 908.974 440.505C870.128 464.693 832.392 482.797 793.609 495.85C753.033 509.389 708.834 516.712 668.145 516.712Z" fill="#FFE492"/>
<path d="M2273.89 509.408C2162.85 445.529 2046.91 386.249 1929.29 333.218C1924.31 330.988 1919.32 328.748 1914.31 326.501C1863.37 303.636 1810.69 279.993 1754.36 261.574C1699.71 243.755 1644.32 232.859 1597.35 224.551C1467.69 201.478 1362.69 204.961 1266.88 235.51C1168.54 266.963 1092.33 319.184 1031.1 361.146C1027.43 363.665 1023.76 366.188 1020.09 368.713C1017.37 370.577 1014.66 372.442 1011.94 374.304C977.081 398.221 945.368 419.604 910.329 439.116C870.3 461.405 831.718 477.729 792.37 489.023C755.495 499.608 716.103 505.208 679.463 505.21C672.787 505.21 666.21 505.025 659.747 504.649C636.151 503.278 614.306 499.425 594.82 493.197C573.558 486.402 555.066 476.749 539.849 464.506C538.49 463.409 537.134 462.274 535.822 461.133C512.537 440.904 498.918 417.305 485.75 394.483C482.914 389.568 479.979 384.483 477.011 379.548C460.12 351.396 440.642 326.818 417.471 304.409C414.587 301.621 411.601 298.829 408.596 296.106C353.684 246.367 277.926 204.446 189.517 174.875C86.3347 140.443 -23.1792 124.608 -118.854 130.284C-184.261 134.241 -251.144 157.245 -281.504 186.223C-302.187 205.965 -305.855 227.937 -292.118 249.763L-292.463 249.839C-299.655 238.411 -302.162 226.974 -299.912 215.846C-297.842 205.6 -291.752 195.595 -281.815 186.108C-266.229 171.229 -241.544 157.929 -210.429 147.651C-181.652 138.144 -149.145 131.898 -118.891 130.068C-68.734 127.091 -15.0268 129.958 40.7396 138.585C91.1859 146.39 141.306 158.536 189.7 174.684C278.165 204.272 353.962 246.217 408.908 295.987C411.916 298.712 414.902 301.506 417.786 304.294C440.972 326.716 460.457 351.306 477.359 379.472C480.327 384.409 483.262 389.492 486.098 394.409C499.259 417.218 512.871 440.802 536.126 461.007C537.438 462.146 538.79 463.278 540.146 464.373C605.596 517.036 716.84 510.458 792.212 488.825C882.138 463.013 950.953 415.81 1011.67 374.161C1014.38 372.296 1017.1 370.432 1019.81 368.569C1023.48 366.044 1027.15 363.521 1030.83 361.003C1065.78 337.051 1100.29 313.775 1138.24 292.327C1181.87 267.661 1223.9 249.014 1266.71 235.319C1293.35 226.824 1321.31 220.342 1349.82 216.055C1376.47 212.045 1404.48 209.82 1433.09 209.438C1483.54 208.764 1537.31 213.64 1597.46 224.343C1644.45 232.655 1699.86 243.555 1754.54 261.385C1810.89 279.81 1863.58 303.46 1914.54 326.329C1919.54 328.576 1924.54 330.817 1929.52 333.046C2047.14 386.082 2163.1 445.368 2274.15 509.254L2273.89 509.408Z" fill="#FFE492"/>
<path d="M2270.01 507.361C2158.33 441.851 2044.22 381.818 1930.82 328.932C1924.04 325.768 1917.1 322.506 1910.38 319.353C1862.31 296.771 1812.6 273.419 1758.61 255.971C1704.69 238.611 1648.84 229.493 1601.31 222.865C1474.81 205.052 1371.2 211.332 1275.26 242.629C1183.75 272.589 1112.05 317.641 1042.72 361.209L1035.1 365.992C1029.09 369.771 1022.87 373.676 1016.74 377.507C947.34 420.825 877.863 461.424 791.132 482.19C770.086 487.229 748.475 490.722 726.894 492.575C703.719 494.564 681.208 494.592 659.982 492.658C636.928 490.556 615.578 486.143 596.525 479.539C575.79 472.353 557.668 462.524 542.667 450.329C541.315 449.225 539.971 448.088 538.67 446.949C515.671 426.84 501.561 403.588 487.916 381.101C484.871 376.083 481.72 370.894 478.54 365.855C460.864 337.79 440.903 313.41 417.512 291.323C414.588 288.563 411.558 285.792 408.505 283.091C352.82 233.793 276.465 192.424 187.693 163.455C83.7814 129.647 -26.0404 114.557 -121.55 120.969C-186.36 125.413 -252.939 148.578 -283.453 177.304C-304.48 197.096 -308.874 219.153 -296.159 241.09L-296.508 241.162C-303.161 229.684 -305.217 218.203 -302.619 207.043C-300.223 196.753 -293.88 186.709 -283.768 177.191C-268.012 162.362 -243.416 149.076 -212.631 138.767C-184.139 129.225 -151.808 122.83 -121.594 120.757C-71.4962 117.393 -17.734 119.872 38.2083 128.125C88.7791 135.588 139.13 147.409 187.865 163.266C276.689 192.25 353.087 233.645 408.806 282.972C411.858 285.675 414.892 288.448 417.816 291.208C441.221 313.306 461.194 337.698 478.877 365.779C482.057 370.818 485.208 376.01 488.253 381.027C501.89 403.501 515.993 426.742 538.967 446.828C540.264 447.962 541.608 449.096 542.957 450.2C606.832 502.13 712.964 500.672 790.989 481.99C877.651 461.242 947.098 420.657 1016.47 377.359C1022.6 373.528 1028.82 369.623 1034.83 365.844L1042.45 361.061C1076.48 339.676 1111.67 317.561 1149.89 296.988C1193.18 273.688 1234.13 255.845 1275.08 242.438C1301.44 233.837 1329.01 227.035 1357 222.224C1383.32 217.699 1410.9 214.783 1438.97 213.555C1489.21 211.358 1542.33 214.335 1601.39 222.652C1648.94 229.284 1704.82 238.404 1758.77 255.78C1812.8 273.234 1862.52 296.593 1910.61 319.182C1917.32 322.335 1924.26 325.594 1931.05 328.761C2044.45 381.651 2158.58 441.688 2270.26 507.204L2270.01 507.361Z" fill="#FFE492"/>
<path d="M2266.12 505.314C2155.41 439.077 2043.11 378.291 1932.35 324.649C1924.03 320.618 1915.49 316.426 1907.24 312.374C1861.76 290.034 1814.73 266.935 1762.85 250.374C1709.19 233.311 1653.08 226.042 1605.27 221.183C1482.28 208.49 1380.07 217.569 1283.63 249.752C1199.47 277.957 1130.37 317.928 1063.54 356.582C1056.51 360.65 1049.24 364.855 1042.15 368.93C1033.83 373.715 1027.47 377.351 1021.54 380.714C989.769 398.721 951.942 419.454 912.246 436.699C870.179 454.973 830.157 467.62 789.89 475.365C768.715 479.437 747.196 482.006 725.927 482.996C703.089 484.061 680.977 483.279 660.209 480.669C637.708 477.842 616.856 472.868 598.225 465.886C578.021 458.315 560.276 448.31 545.481 436.154C544.147 435.052 542.81 433.913 541.513 432.77C518.818 412.795 504.235 389.902 490.129 367.763C486.857 362.628 483.475 357.319 480.063 352.162C461.593 324.176 441.144 299.996 417.544 278.237C414.576 275.501 411.502 272.756 408.406 270.077C351.947 221.22 274.992 180.403 185.861 152.036C81.2272 118.849 -28.9023 104.509 -124.244 111.654C-178.493 115.809 -249.348 134.949 -285.351 168.34C-306.756 188.194 -311.893 210.35 -300.201 232.413L-300.549 232.479C-306.665 220.942 -308.262 209.411 -305.302 198.207C-302.568 187.865 -295.962 177.778 -285.659 168.223C-269.735 153.455 -245.23 140.19 -214.786 129.86C-186.58 120.289 -154.443 113.749 -124.288 111.439C-74.2482 107.688 -20.4274 109.781 35.6834 117.66C86.3752 124.779 136.961 136.279 186.033 151.845C275.215 180.227 352.215 221.068 408.707 269.953C411.803 272.633 414.88 275.381 417.848 278.12C441.459 299.889 461.919 324.082 480.401 352.082C483.815 357.241 487.197 362.55 490.469 367.685C504.565 389.813 519.144 412.693 541.813 432.646C543.11 433.787 544.444 434.924 545.778 436.023C598.917 479.689 690.133 494.318 789.776 475.154C880.014 457.8 953.624 418.904 1021.29 380.554C1027.22 377.19 1033.57 373.554 1041.89 368.769C1048.98 364.695 1056.25 360.49 1063.28 356.422C1096.18 337.392 1130.2 317.715 1166.49 299.29C1207.52 278.452 1245.78 262.184 1283.46 249.559C1309.57 240.845 1336.73 233.724 1364.19 228.395C1390.2 223.347 1417.35 219.742 1444.87 217.676C1494.98 213.916 1547.47 214.992 1605.34 220.963C1653.17 225.827 1709.31 233.098 1763.02 250.176C1814.93 266.748 1861.98 289.854 1907.47 312.2C1915.72 316.253 1924.26 320.444 1932.58 324.475C2043.35 378.124 2155.66 438.914 2266.38 505.155L2266.12 505.314Z" fill="#FFE492"/>
<path d="M2262.24 503.267C2152.48 436.297 2042.01 374.758 1933.87 320.364C1924.67 315.738 1915.23 310.881 1906.09 306.185C1862.56 283.815 1817.56 260.685 1767.09 244.772C1713.39 227.913 1657.16 222.535 1609.23 219.497C1491.81 211.854 1388.04 224.08 1292 256.871C1215.53 283.1 1149.98 318.189 1086.58 352.124C1073.78 358.977 1060.54 366.066 1047.67 372.822C1039.79 376.957 1032.82 380.589 1026.33 383.922C996.173 399.407 956.055 419.263 913.186 435.489C870.112 451.791 829.372 462.602 788.639 468.537C744.213 475.011 699.874 475.058 660.42 468.678C638.484 465.13 618.126 459.597 599.912 452.232C580.248 444.281 562.88 434.103 548.286 421.983C546.964 420.879 545.637 419.739 544.348 418.596C521.975 398.773 506.938 376.255 492.399 354.481C488.882 349.214 485.247 343.768 481.579 338.477C462.299 310.564 441.363 286.579 417.572 265.157C414.561 262.445 411.442 259.725 408.302 257.069C351.07 208.653 273.518 168.386 184.028 140.625C78.6723 108.062 -31.765 94.4693 -126.942 102.347C-191.443 107.801 -255.846 130.705 -287.195 159.338C-309.011 179.262 -314.906 201.534 -304.244 223.745L-304.595 223.804C-310.168 212.197 -311.304 200.606 -307.974 189.354C-304.896 178.954 -298.007 168.814 -287.503 159.218C-271.41 144.519 -247.001 131.285 -216.912 120.946C-189.003 111.356 -157.067 104.672 -126.993 102.129C-77.012 97.9918 -23.1325 99.6999 33.1505 107.203C83.9668 113.979 134.787 125.157 184.196 140.43C273.737 168.208 351.334 208.497 408.603 256.943C411.743 259.599 414.861 262.321 417.876 265.036C441.678 286.471 462.625 310.466 481.916 338.392C485.584 343.683 489.219 349.131 492.736 354.399C507.268 376.162 522.297 398.669 544.648 418.472C545.938 419.615 547.26 420.751 548.583 421.855C600.81 465.238 690.516 482.61 788.551 468.326C877.924 455.303 955.535 419.984 1026.09 383.759C1032.57 380.426 1039.55 376.797 1047.42 372.661C1060.29 365.905 1073.53 358.819 1086.33 351.965C1149.74 318.024 1215.31 282.926 1291.82 256.687C1317.7 247.849 1344.46 240.41 1371.37 234.574C1397.1 228.993 1423.81 224.697 1450.75 221.805C1500.84 216.426 1552.7 215.603 1609.27 219.284C1657.22 222.324 1713.5 227.704 1767.26 244.583C1817.76 260.507 1862.78 283.646 1906.33 306.024C1915.47 310.72 1924.91 315.575 1934.11 320.201C2042.25 374.6 2152.74 436.143 2262.5 503.117L2262.24 503.267Z" fill="#FFE492"/>
<path d="M2258.35 501.22C2149.58 433.511 2040.92 371.223 1935.4 316.081C1925.71 311.013 1915.73 305.648 1906.09 300.459C1864.15 277.9 1820.78 254.572 1771.33 239.172C1717.41 222.456 1661.13 218.995 1613.19 217.813C1500.21 214.822 1397.88 229.927 1300.38 263.992C1231.99 287.996 1171.04 318.376 1112.08 347.753C1091.81 357.856 1072.66 367.398 1053.19 376.714C1045.27 380.506 1038.05 383.913 1031.13 387.127C986.446 407.847 949.271 422.829 914.133 434.272C870.051 448.629 828.596 457.604 787.398 461.707C771.415 463.298 755.491 464.091 739.857 464.091C712.142 464.091 685.325 461.605 660.637 456.681C615.958 447.769 579.105 431.325 551.101 407.806C549.782 406.691 548.467 405.551 547.192 404.412C525.16 384.761 509.701 362.643 494.752 341.252C490.964 335.832 487.05 330.23 483.104 324.782C463 296.934 441.572 273.15 417.61 252.069C414.554 249.381 411.392 246.684 408.208 244.052C350.203 196.078 272.049 156.363 182.2 129.204C76.1227 97.266 -34.6187 84.4188 -129.63 93.0285C-194.399 99.0196 -256.944 121.489 -288.964 150.274C-311.223 170.281 -317.899 192.685 -308.277 215.066L-308.633 215.12C-313.656 203.433 -314.323 191.773 -310.611 180.462C-307.174 169.992 -299.997 159.796 -289.268 150.154C-273.007 135.536 -248.704 122.345 -218.981 112.006C-191.373 102.401 -159.661 95.5862 -129.685 92.8133C-79.7631 88.289 -25.825 89.6102 30.6266 96.7401C81.5675 103.175 132.618 114.031 182.368 129.008C272.269 156.184 350.466 195.921 408.508 243.924C411.692 246.558 414.854 249.255 417.914 251.945C441.891 273.037 463.329 296.834 483.441 324.693C487.387 330.141 491.304 335.745 495.089 341.165C510.031 362.545 525.482 384.654 547.496 404.288C548.771 405.424 550.082 406.565 551.401 407.678C603.694 451.6 689.689 471.214 787.335 461.49C880.288 452.232 962.619 418.617 1030.9 386.953C1037.82 383.739 1045.04 380.334 1052.96 376.542C1072.43 367.226 1091.58 357.687 1111.85 347.584C1170.81 318.2 1231.78 287.816 1300.19 263.803C1325.88 254.829 1352.24 247.071 1378.56 240.743C1404.05 234.615 1430.32 229.628 1456.64 225.923C1506.84 218.858 1558.06 216.133 1613.21 217.593C1661.19 218.775 1717.51 222.241 1771.5 238.976C1820.99 254.388 1864.37 277.726 1906.33 300.294C1915.98 305.483 1925.95 310.848 1935.64 315.914C2041.16 371.06 2149.83 433.355 2258.61 501.068L2258.35 501.22Z" fill="#FFE492"/>
<path d="M2254.47 499.173C2145.15 429.756 2041.28 368.465 1936.93 311.796C1926.97 306.389 1917.17 300.867 1906.79 295.022C1866.22 272.17 1824.26 248.542 1775.58 233.572C1720.98 216.863 1662.23 215.472 1617.15 216.129C1509.31 217.493 1408.43 235.48 1308.75 271.116C1248.94 292.601 1193.72 318.402 1140.32 343.355C1112.25 356.47 1085.74 368.854 1058.71 380.608C1050.68 384.1 1043.23 387.282 1035.92 390.335C990.63 409.232 952.231 422.805 915.071 433.053C869.967 445.492 827.797 452.63 786.152 454.877C764.754 456.031 743.503 455.814 722.988 454.232C701.268 452.556 680.361 449.342 660.85 444.681C617.603 434.348 581.626 417.174 553.915 393.634C552.607 392.517 551.303 391.374 550.035 390.235C528.373 370.786 512.526 349.09 497.2 328.109C493.111 322.511 488.883 316.722 484.629 311.094C463.681 283.307 441.771 259.72 417.643 238.987C414.539 236.323 411.333 233.65 408.113 231.042C349.335 183.509 270.584 144.346 180.375 117.789C97.1143 93.3784 11.2515 80.6421 -67.4847 80.6421C-89.7436 80.6421 -111.416 81.6591 -132.32 83.717C-196.308 90.1406 -258.461 112.691 -290.668 141.166C-313.399 161.267 -320.885 183.824 -312.315 206.395L-312.674 206.443C-317.148 194.665 -317.334 182.924 -313.231 171.548C-309.427 161.002 -301.938 150.739 -290.975 141.045C-274.546 126.518 -250.356 113.382 -221.015 103.053C-193.318 93.3024 -162.669 86.542 -132.385 83.504C-82.5218 78.5929 -28.5251 79.5295 28.0987 86.2834C79.1605 92.3723 130.449 102.905 180.537 117.591C270.796 144.163 349.595 183.348 408.41 230.91C411.634 233.517 414.844 236.193 417.947 238.859C442.086 259.603 464.008 283.2 484.966 311C489.22 316.629 493.452 322.418 497.541 328.018C512.86 348.99 528.699 370.677 550.343 390.111C551.611 391.248 552.915 392.391 554.219 393.505C606.04 437.525 690.561 459.812 786.123 454.658C882.82 449.44 970.302 417.444 1035.72 390.152C1043.02 387.099 1050.47 383.918 1058.5 380.428C1085.53 368.678 1112.03 356.292 1140.1 343.179C1193.51 318.224 1248.73 292.416 1308.56 270.925C1359.89 252.577 1410.25 239.207 1462.53 230.045C1512.96 221.209 1563.54 216.585 1617.15 215.907C1647.74 215.461 1672.7 216.235 1695.69 218.339C1725.38 221.055 1751.57 225.973 1775.75 233.374C1824.48 248.357 1866.46 271.998 1907.05 294.861C1917.43 300.707 1927.23 306.226 1937.18 311.633C2041.54 368.304 2145.42 429.6 2254.74 499.021L2254.47 499.173Z" fill="#FFE492"/>
<path d="M2250.58 497.126C2142.27 426.949 2040.17 364.927 1938.45 307.51C1928.39 301.83 1918.47 295.978 1907.97 289.783C1868.61 266.57 1827.91 242.564 1779.82 227.97C1724.77 211.339 1666.09 212.004 1621.11 214.44C1519.35 219.762 1419.91 240.63 1317.12 278.233C1266.48 296.849 1218.26 318.154 1171.63 338.759C1134.76 355.046 1099.95 370.432 1064.23 384.494C1056.16 387.675 1048.24 390.717 1040.71 393.534C995.335 410.492 954.544 423.016 916.009 431.821C869.868 442.365 826.984 447.671 784.907 448.041C763.498 448.227 742.331 447.08 722.006 444.627C700.7 442.054 680.196 438.031 661.063 432.668C619.3 420.962 584.195 403.058 556.726 379.452C555.436 378.337 554.139 377.192 552.875 376.047C531.62 356.835 515.429 335.597 499.769 315.06C495.339 309.249 490.755 303.238 486.15 297.395C464.345 269.66 441.947 246.273 417.676 225.894C414.529 223.254 411.279 220.605 408.014 218.021C348.463 170.929 269.111 132.318 178.544 106.362C71.0268 75.6787 -40.3338 64.3266 -135.016 74.3966C-198.176 81.2309 -259.915 103.839 -292.301 131.992C-315.546 152.199 -323.863 174.925 -316.359 197.716L-316.718 197.757C-320.632 185.877 -320.331 174.045 -315.821 162.591C-311.633 151.958 -303.825 141.62 -292.605 131.868C-276.015 117.445 -251.946 104.374 -223 94.0672C-195.622 84.3188 -165.222 77.4432 -135.082 74.1814C-85.2731 68.8857 -31.2214 69.4333 25.571 75.8134C76.7574 81.5634 128.277 91.7746 178.701 106.165C269.324 132.133 348.719 170.768 408.304 217.889C411.572 220.472 414.826 223.124 417.973 225.766C442.258 246.156 464.664 269.553 486.479 297.299C491.089 303.143 495.669 309.153 500.102 314.966C515.755 335.495 531.939 356.724 553.179 375.923C554.443 377.066 555.74 378.211 557.026 379.324C609.393 424.324 690.32 448.653 784.899 447.819C861.642 447.145 942.866 429.835 1040.52 393.344C1048.04 390.528 1055.95 387.488 1064.02 384.307C1099.73 370.247 1134.55 354.866 1171.4 338.579C1218.04 317.972 1266.27 296.662 1316.93 278.041C1368.75 259.081 1418.3 244.73 1468.42 234.163C1519.18 223.458 1569.12 216.933 1621.08 214.216C1666.1 211.776 1724.85 211.113 1779.99 227.77C1828.13 242.381 1868.85 266.398 1908.23 289.622C1918.73 295.817 1928.65 301.667 1938.71 307.345C2040.43 364.764 2142.53 426.79 2250.85 496.972L2250.58 497.126Z" fill="#FFE492"/>
<path d="M2246.7 495.079C2139.39 424.139 2039.07 361.383 1939.98 303.227C1929.93 297.323 1919.99 291.188 1909.48 284.693C1871.24 261.065 1831.69 236.633 1784.07 222.369C1728.5 205.8 1669.91 208.527 1625.08 212.754C1529.32 221.609 1434.13 244.678 1325.5 285.354C1284.75 300.678 1244.93 317.489 1206.43 333.746C1159.66 353.49 1115.49 372.142 1069.75 388.385C1061.51 391.315 1053.35 394.127 1045.51 396.739C999.317 412.111 957.265 423.185 916.949 430.591C894.368 434.739 872.076 437.744 850.693 439.524C827.884 441.421 805.332 441.988 783.663 441.21C739.698 439.631 698.522 432.716 661.281 420.66C621.061 407.639 586.832 389.007 559.546 365.277C558.263 364.153 556.977 363.006 555.721 361.867C534.92 342.938 518.439 322.205 502.504 302.156C497.679 296.086 492.692 289.811 487.676 283.704C464.992 256.015 442.107 232.826 417.712 212.81C414.52 210.192 411.223 207.566 407.918 205.009C347.593 158.355 267.644 120.296 176.718 94.9472C68.4825 64.8915 -43.1822 54.2869 -137.707 65.0849C-238.918 76.826 -337.542 127.556 -320.395 189.043L-320.758 189.078C-325.048 173.697 -322.535 158.544 -313.29 144.037C-304.848 130.788 -290.995 118.319 -272.114 106.979C-254.56 96.4357 -233.499 87.3328 -209.522 79.9226C-186.717 72.8753 -161.908 67.6687 -137.78 64.8697C-88.0299 59.1872 -33.9196 59.3501 23.045 65.3565C74.356 70.7653 126.11 80.6549 176.872 94.7516C267.849 120.118 347.846 158.199 408.207 204.878C411.516 207.438 414.813 210.063 418.008 212.684C442.414 232.709 465.311 255.911 488.006 283.611C493.022 289.717 498.009 295.993 502.834 302.065C518.765 322.107 535.239 342.831 556.028 361.75C557.281 362.889 558.564 364.036 559.846 365.157C612.289 410.761 691.784 437.692 783.685 440.995C861.487 443.788 947.071 429.252 1045.33 396.552C1053.17 393.94 1061.32 391.13 1069.56 388.201C1115.29 371.961 1159.46 353.312 1206.22 333.57C1244.73 317.311 1284.55 300.498 1325.3 285.171C1433.98 244.478 1529.21 221.4 1625.02 212.538C1655.14 209.698 1680.08 208.79 1703.52 209.683C1733.47 210.824 1759.87 214.909 1784.23 222.174C1831.9 236.453 1871.47 260.9 1909.74 284.541C1920.25 291.034 1930.18 297.169 1940.24 303.071C2039.33 361.231 2139.66 423.989 2246.96 494.933L2246.7 495.079Z" fill="#FFE492"/>
<path d="M2242.81 493.032C2136.53 421.318 2037.97 357.832 1941.51 298.942C1931.53 292.848 1921.67 286.466 1911.23 279.706C1874.02 255.626 1835.54 230.725 1788.31 216.767C1731.53 200.058 1670.22 205.511 1629.04 211.065C1517.27 225.955 1417.11 260.572 1333.87 292.475C1303.96 303.988 1274.12 316.183 1245.25 327.976C1187.36 351.634 1132.68 373.98 1075.28 392.277C1066.83 394.97 1058.44 397.549 1050.31 399.946C1003.22 413.808 959.904 423.43 917.899 429.358C870.282 436.08 824.705 437.77 782.426 434.38C738.992 430.897 698.307 422.239 661.506 408.647C622.905 394.392 589.552 375.032 562.365 351.104C561.097 349.981 559.818 348.831 558.569 347.688C538.285 329.106 521.599 308.942 505.459 289.441C500.171 283.05 494.701 276.444 489.205 270.014C465.297 241.977 442.591 219.644 417.753 199.726C414.518 197.131 411.18 194.532 407.827 191.996C346.722 145.786 266.172 108.279 174.887 83.5298C65.9335 54.1042 -46.0391 44.245 -140.402 55.771C-241.976 68.3422 -338.586 118.384 -324.435 180.37L-324.798 180.399C-328.308 165.02 -325.271 149.882 -315.773 135.407C-307.068 122.145 -293.133 109.663 -274.352 98.311C-256.838 87.7238 -235.887 78.5534 -212.078 71.0498C-189.409 63.9048 -164.647 58.5482 -140.476 55.5559C-90.7805 49.4865 -36.6152 49.2648 20.5179 54.8953C71.9535 59.9628 123.942 69.5309 175.041 83.332C266.381 108.094 346.975 145.623 408.109 191.862C411.462 194.4 414.803 197.001 418.042 199.596C442.895 219.523 465.609 241.868 489.527 269.916C495.023 276.346 500.494 282.954 505.781 289.345C521.917 308.84 538.6 328.997 558.869 347.571C560.119 348.714 561.394 349.861 562.661 350.985C615.511 397.497 693.573 427.038 782.47 434.165C862.199 440.558 949.754 429.3 1050.14 399.75C1058.27 397.356 1066.67 394.778 1075.1 392.086C1132.49 373.793 1187.16 351.452 1245.05 327.796C1273.91 316.003 1303.75 303.805 1333.67 292.29C1389.64 270.84 1436.2 254.991 1480.19 242.416C1531.98 227.613 1580.64 217.289 1628.95 210.852C1658.41 206.88 1684.08 205.08 1707.43 205.354C1737.51 205.706 1764.02 209.374 1788.47 216.572C1835.77 230.547 1874.26 255.463 1911.49 279.558C1921.94 286.316 1931.8 292.699 1941.77 298.787C2038.24 357.68 2136.8 421.17 2243.09 492.886L2242.81 493.032Z" fill="#FFE492"/>
<path d="M2238.93 490.983C2133.67 418.493 2036.88 354.275 1943.04 294.654C1933.2 288.402 1923.46 281.799 1913.15 274.806C1876.92 250.241 1839.47 224.84 1792.56 211.165C1735.16 194.495 1674.01 202.16 1633 209.377C1531.74 227.046 1441.41 260.689 1342.25 299.594C1324.36 306.637 1306.27 313.906 1288.78 320.938C1221.49 347.979 1151.92 375.94 1080.8 396.167C1072.16 398.627 1063.51 400.976 1055.1 403.149C1007.69 415.388 961.846 423.789 918.841 428.12C870.124 433.027 823.811 432.833 781.176 427.548C738.351 422.24 698.161 411.837 661.718 396.63C624.84 381.24 592.354 361.155 565.167 336.931C563.911 335.806 562.643 334.654 561.401 333.511C541.729 315.364 524.937 295.856 508.698 276.992C502.846 270.194 496.797 263.167 490.718 256.328C465.876 228.319 442.698 206.178 417.775 186.646C414.503 184.082 411.117 181.505 407.717 178.988C345.85 133.213 264.707 96.2576 173.055 72.1126C63.3869 43.3173 -48.8897 34.2056 -143.099 46.4574C-241.449 59.3871 -339.842 107.673 -328.48 171.696L-328.843 171.717C-331.573 156.339 -328.011 141.218 -318.261 126.776C-309.296 113.499 -295.277 101.006 -276.598 89.6406C-242.134 68.6748 -193.505 52.857 -143.18 46.2422C-93.5432 39.7882 -39.3193 39.1797 17.986 44.4342C69.5461 49.1628 121.766 58.4071 173.201 71.9127C264.904 96.0707 346.096 133.05 408.003 178.847C411.407 181.366 414.792 183.943 418.068 186.509C443.002 206.052 466.191 228.202 491.041 256.222C497.119 263.062 503.172 270.09 509.024 276.887C525.259 295.747 542.047 315.251 561.709 333.389C562.947 334.532 564.215 335.682 565.472 336.808C619.864 385.271 694.478 416.574 781.246 427.333C861.591 437.295 953.675 429.091 1054.95 402.949C1063.35 400.776 1071.99 398.429 1080.63 395.972C1151.73 375.751 1221.29 347.795 1288.56 320.757C1306.06 313.725 1324.15 306.456 1342.04 299.413C1385.44 282.383 1435.95 262.849 1486.08 246.541C1538.52 229.482 1586.54 217.258 1632.89 209.17C1662.07 204.035 1687.74 201.371 1711.35 201.028C1741.12 200.593 1768.49 203.94 1792.71 210.972C1813.72 217.098 1834.87 226.24 1857.37 238.922C1877.23 250.12 1895.63 262.597 1913.42 274.662C1923.72 281.653 1933.46 288.257 1943.3 294.507C2037.15 354.129 2133.94 418.35 2239.2 490.841L2238.93 490.983Z" fill="#FFE492"/>
<path d="M2235.04 488.935C2130.82 415.664 2035.8 350.713 1944.57 290.371C1934.9 283.982 1925.33 277.178 1915.2 269.977C1879.92 244.902 1843.44 218.973 1796.8 205.567C1753.22 193.078 1700.93 193.774 1636.96 207.692C1547.51 227.043 1467.56 259.411 1382.9 293.683C1372.36 297.951 1361.47 302.362 1350.62 306.719C1346.37 308.429 1342.12 310.144 1337.88 311.856C1257.22 344.385 1173.81 378.022 1086.32 400.061C1077.47 402.29 1068.59 404.409 1059.9 406.356C1011.45 417.206 964.307 424.112 919.797 426.881C869.955 429.98 822.898 427.907 779.941 420.718C737.783 413.662 698.087 401.515 661.956 384.613C626.935 368.23 595.322 347.421 567.992 322.758C566.746 321.631 565.49 320.477 564.255 319.331C545.33 301.753 528.593 283.032 512.401 264.929C505.847 257.597 499.064 250.015 492.253 242.635C466.451 214.646 442.803 192.696 417.822 173.56C414.502 171.017 411.077 168.466 407.632 165.974C344.981 120.641 263.237 84.2358 171.226 60.6949C60.8473 32.5319 -51.7408 24.1656 -145.793 37.1432C-242.336 50.5749 -340.59 99.256 -332.519 163.023L-332.885 163.04C-334.831 147.659 -330.749 132.556 -320.746 118.151C-311.516 104.858 -297.417 92.35 -278.837 80.9762C-244.52 59.9669 -196.059 43.9145 -145.877 36.9324C-96.2953 30.0916 -42.0165 29.0963 15.4574 33.977C67.1421 38.3623 119.6 47.2849 171.373 60.495C263.435 84.0511 345.23 120.476 407.907 165.832C411.351 168.325 414.785 170.88 418.104 173.423C443.096 192.57 466.759 214.526 492.568 242.526C499.383 249.906 506.162 257.49 512.72 264.822C528.904 282.922 545.642 301.638 564.559 319.21C565.794 320.355 567.047 321.507 568.293 322.634C623.865 372.78 697.083 406.621 780.036 420.503C861.924 434.206 956.038 429.376 1059.77 406.148C1068.45 404.201 1077.33 402.084 1086.17 399.857C1173.64 377.826 1257.03 344.196 1337.67 311.671C1341.92 309.957 1346.16 308.244 1350.41 306.534C1361.26 302.177 1372.15 297.766 1382.69 293.5C1467.37 259.222 1547.35 226.846 1636.83 207.486C1665.73 201.197 1691.39 197.67 1715.27 196.699C1745.16 195.484 1772.64 198.402 1796.96 205.369C1817.85 211.373 1838.73 220.557 1860.81 233.445C1880.28 244.817 1898.18 257.536 1915.48 269.835C1925.62 277.035 1935.18 283.836 1944.84 290.223C2036.08 350.567 2131.1 415.52 2235.32 488.794L2235.04 488.935Z" fill="#FFE492"/>
<path d="M2231.16 486.888C2136.03 418.611 2040.12 351.05 1946.09 286.086C1936.52 279.51 1927.03 272.446 1916.99 264.968C1884.33 240.643 1847.3 213.073 1801.05 199.967C1756.95 187.5 1704.58 189.476 1640.92 206.004C1565.23 225.592 1498.24 254.394 1427.33 284.886C1405.12 294.435 1382.15 304.312 1358.99 313.838C1318.56 330.504 1274.82 348.138 1228.97 364.199C1179.87 381.401 1135.01 394.403 1091.83 403.951C1082.76 405.957 1073.63 407.845 1064.68 409.56C1015.2 419.041 966.785 424.437 920.768 425.597C869.827 426.879 822.026 422.942 778.688 413.884C698.659 396.952 628.713 361.524 570.795 308.584C569.561 307.454 568.315 306.298 567.087 305.153C549.123 288.35 532.678 270.625 516.777 253.481C509.291 245.413 501.553 237.068 493.767 228.947C466.983 200.965 442.859 179.208 417.848 160.478C414.481 157.957 411.011 155.43 407.526 152.964C344.113 108.068 261.768 72.2169 169.398 49.2779C58.3047 21.7451 -54.5875 14.1285 -148.485 27.8297C-245.615 42.0829 -341.407 90.1186 -336.56 154.35L-336.926 154.359C-338.088 138.974 -333.478 123.888 -323.23 109.52C-313.733 96.2097 -299.553 83.6885 -281.079 72.306C-263.675 61.5819 -243.047 52.2051 -219.769 44.4342C-197.169 36.8914 -173.218 31.2328 -148.577 27.6168C-99.0504 20.3913 -44.713 19.0092 12.9295 23.514C64.7387 27.5624 117.427 36.1613 169.537 49.0758C261.962 72.0278 344.355 107.901 407.805 152.818C411.289 155.287 414.766 157.816 418.134 160.337C443.155 179.078 467.29 200.843 494.085 228.834C501.871 236.957 509.61 245.302 517.095 253.373C532.997 270.514 549.438 288.237 567.395 305.033C568.619 306.18 569.868 307.334 571.099 308.464C628.973 361.363 698.857 396.763 778.809 413.678C861.165 430.888 959.98 429.393 1064.57 409.351C1073.51 407.637 1082.64 405.75 1091.7 403.747C1188.25 382.401 1276.58 347.538 1358.78 313.658C1381.94 304.131 1404.9 294.257 1427.11 284.708C1498.04 254.209 1565.04 225.401 1640.77 205.804C1704.52 189.25 1757 187.274 1801.2 199.769C1821.92 205.639 1842.49 214.84 1864.09 227.893C1883.13 239.404 1900.49 252.332 1917.28 264.831C1927.32 272.309 1936.8 279.371 1946.37 285.943C2040.4 350.909 2136.31 418.469 2231.44 486.749L2231.16 486.888Z" fill="#FFE492"/>
<path d="M2227.27 484.842C2133.6 416.186 2039.51 347.873 1947.62 281.801C1938.35 275.154 1929.15 267.965 1919.4 260.355C1887.54 235.462 1851.43 207.247 1805.29 194.363C1760.67 181.918 1708.2 185.173 1644.87 204.311C1578.53 224.334 1517.57 252.606 1458.63 279.949C1429.07 293.659 1398.5 307.836 1367.36 320.955C1318.2 341.682 1276.84 357.493 1237.2 370.716C1188.31 387.021 1142.56 399.164 1097.35 407.839C1088.07 409.621 1078.69 411.277 1069.48 412.761C1021.46 420.491 974.314 424.402 929.209 424.404C926.703 424.404 924.212 424.391 921.72 424.367C869.574 423.863 821.033 418.035 777.446 407.048C756.407 401.715 735.804 394.946 716.213 386.927C697.797 379.391 679.701 370.514 662.425 360.544C631.343 342.608 602.287 320.973 573.605 294.407C572.374 293.264 571.146 292.119 569.926 290.969C553.284 275.295 537.54 258.91 522.316 243.064C513.526 233.917 504.439 224.458 495.287 215.251C467.107 186.883 443.235 165.952 417.877 147.388C414.466 144.891 410.952 142.388 407.423 139.945C343.241 95.495 260.298 60.1957 167.569 37.8587C55.7651 10.9583 -57.4349 4.08924 -151.179 18.5141C-246.487 33.2214 -342.155 81.6222 -340.598 145.673L-340.964 145.676C-341.69 115.841 -321.754 87.4721 -283.315 63.6357C-265.94 52.8616 -245.421 43.4174 -222.323 35.5596C-199.848 27.9148 -175.944 22.1083 -151.271 18.3011C-101.803 10.6888 -47.4065 8.92214 10.4045 13.051C62.3383 16.7604 115.262 25.0376 167.705 37.6545C260.492 60.0066 343.482 95.3277 407.705 139.804C411.234 142.249 414.755 144.754 418.166 147.251C443.536 165.826 467.418 186.764 495.605 215.142C504.758 224.351 513.849 233.811 522.635 242.957C537.859 258.801 553.599 275.184 570.238 290.854C571.458 292.003 572.682 293.149 573.913 294.29C634.86 350.742 701.483 387.56 777.589 406.848C882.999 433.42 994.447 424.617 1069.38 412.552C1078.59 411.068 1087.96 409.414 1097.24 407.633C1201.22 387.679 1296.1 350.735 1367.15 320.779C1398.29 307.665 1428.85 293.488 1458.4 279.78C1517.37 252.432 1578.33 224.152 1644.71 204.12C1673.04 195.556 1698.69 190.297 1723.1 188.046C1753.22 185.269 1780.92 187.329 1805.44 194.17C1826.1 199.939 1846.48 209.214 1867.72 222.522C1886.44 234.248 1903.35 247.453 1919.7 260.227C1929.44 267.835 1938.63 275.021 1947.9 281.664C2039.79 347.736 2133.88 416.049 2227.56 484.705L2227.27 484.842Z" fill="#FFE492"/>
<path d="M2223.39 482.794L1949.15 277.518C1940.19 270.814 1931.3 263.519 1921.88 255.798C1890.81 230.316 1855.58 201.436 1809.53 188.765C1765 176.513 1710.94 181.177 1648.83 202.627C1589.13 223.247 1534.68 250.669 1482.02 277.189C1447.7 294.476 1412.2 312.35 1375.74 328.081C1266.13 375.362 1170.33 403.288 1074.28 415.968C1034.43 421.227 995.114 423.874 956.99 423.874C945.434 423.874 933.995 423.63 922.676 423.144C869.299 420.849 820.018 413.134 776.207 400.218C735.602 388.244 698.457 371.342 662.659 348.542C634.072 330.336 606.669 308.632 576.423 280.236C560.458 265.251 545 249.681 530.051 234.623C496.217 200.55 461.233 165.315 417.921 134.306C351.485 86.7438 264.281 49.4452 165.737 26.4411C53.2257 0.175249 -60.282 -5.94846 -153.872 9.20001C-244.483 23.866 -342.829 70.1133 -344.639 137L-345.006 136.996C-344.196 107.099 -323.637 78.7339 -285.553 54.967C-251.119 33.4775 -204.388 17.1491 -153.967 8.98922C-104.554 0.992324 -50.0997 -1.16119 7.87616 2.5917C59.9346 5.95996 113.092 13.9177 165.872 26.239C214.633 37.6216 260.943 52.6049 303.519 70.7739C346.45 89.0951 385.036 110.422 418.199 134.162C461.53 165.183 496.525 200.426 530.366 234.508C545.315 249.563 560.773 265.131 576.734 280.114C620.863 321.546 683.438 372.615 776.372 400.018C882.951 431.443 997.155 425.919 1074.19 415.751C1170.21 403.08 1265.95 375.164 1375.52 327.9C1411.97 312.176 1447.46 294.302 1481.78 277.02C1534.45 250.495 1588.92 223.067 1648.65 202.436C1710.86 180.949 1765.04 176.281 1809.69 188.565C1830.31 194.239 1850.49 203.594 1871.4 217.169C1889.8 229.119 1906.26 242.616 1922.18 255.667C1931.59 263.388 1940.49 270.679 1949.44 277.381L2223.68 482.657L2223.39 482.794Z" fill="#FFE492"/>
<path d="M2221.18 467.013C2151.35 409.857 2091.43 363.477 2032.62 321.057C2004.08 300.45 1974.92 280.166 1945.97 260.769C1937.21 254.902 1928.54 248.661 1919.35 242.053C1896.27 225.444 1872.4 208.27 1844.93 195.525C1830.18 188.669 1815.98 183.76 1801.52 180.518C1757.14 170.468 1705.07 177.113 1646.75 200.271C1616.57 212.238 1589.09 225.857 1566.19 237.6C1541.95 250.032 1518.03 263.742 1494.9 277C1461.66 296.058 1427.28 315.763 1390.33 332.687C1367.84 343.016 1345.05 352.245 1322.58 360.12C1277.62 375.875 1229.36 388.857 1179.15 398.705C1148.13 404.722 1116.95 409.27 1086.5 412.222C1060.26 414.755 1033.96 416.218 1008.35 416.568C970.012 417.094 932.661 415.088 897.333 410.6C859.769 405.828 824.221 398.212 791.677 387.959C762.658 378.817 735.247 367.306 707.881 352.766C656.885 325.694 616.21 294.391 586.473 270.144C571.865 258.177 557.601 245.973 543.806 234.171C504.084 200.182 466.564 168.079 419.614 139.484C381.321 116.315 337.631 96.3203 289.746 80.0527C252.948 67.5511 212.926 57.3268 170.794 49.6624C160.758 47.8392 150.531 46.1398 140.408 44.6165C96.8206 38.069 47.752 33.8055 -5.43134 31.9432C-59.0506 30.0222 -105.441 31.6846 -147.244 37.0303C-170.877 40.0291 -193.773 44.7338 -215.307 51.0118C-291.328 73.1771 -340.143 110.387 -345.889 150.549L-346.347 150.525C-344.815 139.819 -340.319 129.273 -332.988 119.177C-326.022 109.587 -316.456 100.338 -304.555 91.6873C-282.069 75.3459 -251.276 61.1948 -215.508 50.7663C-193.942 44.4774 -171.009 39.7662 -147.339 36.763C-105.492 31.4129 -59.0653 29.7484 -5.40204 31.6715C47.8106 33.5338 96.9048 37.8018 140.521 44.3536C150.656 45.879 160.886 47.5784 170.929 49.4038C213.095 57.0725 253.15 67.3055 289.977 79.818C337.895 96.0965 381.621 116.108 419.932 139.293C466.913 167.906 504.439 200.017 544.176 234.015C557.967 245.817 572.231 258.018 586.836 269.983C616.558 294.22 657.214 325.507 708.181 352.562C735.518 367.087 762.9 378.587 791.886 387.718C855.577 407.782 928.4 417.398 1008.33 416.296C1033.93 415.946 1060.2 414.484 1086.43 411.952C1116.86 409.001 1148.01 404.457 1179 398.444C1229.19 388.602 1277.41 375.629 1322.34 359.883C1344.8 352.014 1367.58 342.79 1390.04 332.47C1426.98 315.555 1461.35 295.854 1494.58 276.802C1517.71 263.542 1541.63 249.828 1565.89 237.392C1588.8 225.642 1616.29 212.019 1646.5 200.043C1672.46 189.732 1697.6 182.609 1721.22 178.869C1750.24 174.275 1777.31 174.744 1801.68 180.264C1816.19 183.517 1830.42 188.439 1845.21 195.31C1872.72 208.075 1896.6 225.259 1919.7 241.879C1928.89 248.485 1937.56 254.726 1946.31 260.589C1975.27 279.988 2004.43 300.274 2032.98 320.885C2091.79 363.31 2151.71 409.694 2221.55 466.855L2221.18 467.013Z" fill="#FFE492"/>
<path d="M2218.97 451.228C2154.22 393.105 2093.46 344.468 2033.19 302.538C2003.81 282.057 1973.39 262.369 1942.79 244.022C1934.67 239.154 1926.66 234.095 1918.17 228.741C1892.76 212.706 1866.48 196.125 1837.05 184.654C1822.19 178.836 1807.95 174.786 1793.51 172.269C1738.22 162.63 1682.06 180.892 1644.67 197.909C1618.19 209.931 1594 223.523 1569.49 237.555C1548.05 249.837 1527.87 263.049 1506.51 277.035C1474.8 297.797 1442.02 319.264 1404.92 337.29C1382.9 348.045 1359.92 357.343 1336.62 364.927C1293.22 379.056 1245.7 390.028 1191.33 398.473C1160.9 403.197 1129.75 406.563 1098.72 408.473C1072.54 410.066 1046.41 410.635 1021.04 410.16C983.313 409.46 946.431 406.313 911.417 400.809C874.645 395.026 839.559 386.577 807.136 375.697C778.728 366.166 751.3 354.34 723.281 339.546C672.395 312.715 628.804 282.97 596.517 260.053C584.565 251.569 572.803 243.033 561.426 234.775C516.121 201.893 473.328 170.831 421.307 144.663C382.428 125.105 338.778 108.568 291.578 95.5121C255.865 85.6334 218.012 78.2319 175.861 72.884C166.133 71.6518 156.237 70.5414 146.45 69.5831C103.464 65.3956 57.5864 63.8114 2.08014 62.1729C-37.931 60.9321 -90.3082 60.115 -140.626 64.8566C-164.457 67.0601 -187.493 70.8869 -209.1 76.2261C-285.172 95.0297 -336.776 127.878 -347.145 164.099L-347.688 164.044C-344.939 154.439 -339.37 145.019 -331.144 136.042C-323.303 127.489 -313 119.288 -300.524 111.66C-276.814 97.1702 -245.274 84.8119 -209.312 75.9241C-187.665 70.574 -164.585 66.7407 -140.714 64.5329C-90.3485 59.7847 -37.931 60.604 2.10574 61.8448C57.6303 63.4833 103.522 65.0674 146.538 69.2571C156.332 70.2176 166.236 71.3281 175.975 72.5602C218.166 77.9146 256.056 85.3226 291.809 95.2123C339.057 108.281 382.743 124.831 421.662 144.408C473.721 170.596 516.531 201.667 561.851 234.563C573.224 242.818 584.986 251.354 596.938 259.835C629.218 282.744 672.791 312.478 723.647 339.296C751.633 354.075 779.032 365.888 807.407 375.408C871.161 396.802 943.049 408.382 1021.06 409.829C1046.4 410.303 1072.51 409.736 1098.66 408.143C1129.66 406.235 1160.79 402.873 1191.19 398.151C1245.51 389.715 1293 378.752 1336.36 364.636C1359.63 357.061 1382.58 347.775 1404.57 337.031C1441.64 319.021 1474.41 297.562 1506.11 276.811C1527.48 262.819 1547.66 249.604 1569.12 237.316C1593.63 223.276 1617.83 209.679 1644.34 197.644C1668.58 186.612 1692.48 178.675 1715.39 174.051C1743.17 168.445 1769.51 167.738 1793.67 171.95C1808.16 174.477 1822.45 178.541 1837.36 184.375C1866.84 195.869 1893.14 212.465 1918.58 228.513C1927.06 233.865 1935.08 238.922 1943.19 243.787C1973.8 262.141 2004.22 281.835 2033.62 302.323C2093.89 344.263 2154.68 392.91 2219.43 451.046L2218.97 451.228Z" fill="#FFE492"/>
<path d="M2216.76 435.444C2156.16 375.565 2096.31 326.034 2033.77 284.022C2003.53 263.667 1971.85 244.576 1939.62 227.277C1932.73 223.578 1925.63 219.653 1918.77 215.859C1890.45 200.183 1861.16 183.974 1829.18 173.784C1814.17 168.969 1799.88 165.774 1785.51 164.021C1730.33 157.286 1677.34 177.448 1642.59 195.545C1619.05 207.762 1597.52 221.609 1576.7 235.002L1572.8 237.51C1553.9 249.659 1536.17 262.984 1517.4 277.094C1487.5 299.562 1456.59 322.792 1419.51 341.893C1397.93 353.089 1374.77 362.457 1350.67 369.736C1308.65 382.429 1261.88 391.487 1203.5 398.241C1173.31 401.733 1142.17 403.915 1110.93 404.723C1084.81 405.373 1058.84 405.047 1033.73 403.749C957.701 399.84 886.663 386.276 822.587 363.435C794.887 353.56 767.44 341.424 738.681 326.325C690.011 300.828 646.725 274.621 606.563 249.963C601.177 246.658 595.85 243.375 590.563 240.117C535.709 206.328 483.899 174.412 423.011 149.848C383.26 133.811 339.654 120.733 293.41 110.976C259.46 103.814 222.665 98.9503 180.932 96.1079C171.527 95.4712 161.96 94.9475 152.496 94.552C128.687 93.5741 103.434 93.4155 76.6981 93.2482C55.2233 93.1134 33.0193 92.9744 9.58786 92.4072C-35.6665 91.2185 -86.9554 89.8734 -134.016 92.6897C-158.298 94.1435 -181.473 97.0901 -202.9 101.449C-278.943 116.922 -333.339 145.413 -348.409 177.663L-349.028 177.561C-345.057 169.058 -338.417 160.763 -329.298 152.908C-320.577 145.395 -309.541 138.237 -296.497 131.633C-271.549 119.003 -239.254 108.442 -203.112 101.089C-181.637 96.7186 -158.415 93.7654 -134.086 92.3094C-86.9774 89.4909 -35.6628 90.8382 9.60986 92.0269C33.0266 92.5919 55.2306 92.7331 76.6981 92.8679C103.445 93.0352 128.705 93.1938 152.536 94.1739C162.008 94.5716 171.585 95.0953 180.998 95.732C222.783 98.5765 259.621 103.446 293.619 110.62C339.918 120.388 383.571 133.48 423.366 149.535C484.31 174.121 536.145 206.052 591.021 239.856C596.308 243.114 601.639 246.395 607.021 249.703C647.175 274.356 690.448 300.557 739.102 326.045C767.832 341.126 795.25 353.252 822.917 363.113C886.909 385.926 957.855 399.471 1033.78 403.376C1058.87 404.671 1084.81 404.997 1110.9 404.347C1142.1 403.539 1173.22 401.359 1203.37 397.871C1261.69 391.124 1308.41 382.077 1350.37 369.402C1374.43 362.137 1397.54 352.787 1419.08 341.61C1456.12 322.533 1487.01 299.316 1516.89 276.862C1535.67 262.745 1553.41 249.414 1572.33 237.255L1576.22 234.748C1597.05 221.348 1618.59 207.493 1642.17 195.263C1677.02 177.107 1730.2 156.886 1785.63 163.651C1800.07 165.414 1814.41 168.619 1829.48 173.454C1861.53 183.665 1890.85 199.892 1919.21 215.585C1926.06 219.38 1933.16 223.304 1940.04 227.001C1972.29 244.309 2003.98 263.41 2034.24 283.776C2096.81 325.806 2156.68 375.354 2217.3 435.252L2216.76 435.444Z" fill="#FFE492"/>
<path d="M2214.55 419.656C2158.91 358.873 2098.28 307.008 2034.34 265.507C2003.26 245.28 1970.32 226.785 1936.45 210.535C1931.56 208.188 1926.55 205.752 1921.7 203.397C1889.69 187.835 1856.59 171.741 1821.33 162.919C1806.19 159.092 1791.86 156.756 1777.52 155.774C1722.5 152.01 1672.65 174.038 1640.53 193.181C1620.57 205.007 1602.57 218.158 1585.15 230.877C1582.14 233.078 1579.13 235.275 1576.11 237.464C1559.55 249.485 1544.06 262.915 1527.66 277.131C1499.79 301.3 1470.96 326.29 1434.1 346.5C1412.45 358.367 1389.76 367.541 1364.71 374.552C1312.32 389.213 1259.97 394.64 1215.67 398.017C1185.7 400.298 1154.57 401.298 1123.14 400.981C1097.1 400.687 1071.29 399.464 1046.42 397.347C972.673 391.087 902.565 375.554 838.045 351.178C811.199 341.039 783.737 328.587 754.084 313.113C724.131 297.519 696.219 282.514 669.222 268.002C650.876 258.138 633.545 248.822 616.621 239.885C552.647 206.098 494.049 176.392 424.729 155.039C384.124 142.533 340.563 132.911 295.253 126.442C262.779 121.804 228.066 119.546 186.014 119.331C176.942 119.292 167.701 119.355 158.552 119.52C144.655 119.788 130.277 120.346 115.06 120.939C85.8582 122.076 52.7538 123.365 17.0955 122.643C3.5166 122.367 -10.3371 121.978 -23.7364 121.6C-58.2002 120.629 -93.8365 119.625 -127.41 120.522C-152.065 121.183 -175.383 123.252 -196.708 126.672C-272.622 138.852 -329.807 162.988 -349.681 191.236L-350.358 191.069C-345.155 183.672 -337.446 176.505 -327.447 169.766C-317.844 163.295 -306.075 157.182 -292.474 151.599C-266.265 140.843 -233.22 132.079 -196.905 126.253C-175.53 122.823 -152.16 120.748 -127.45 120.088C-93.8401 119.188 -58.1892 120.194 -23.7071 121.165C-10.3114 121.544 3.54224 121.933 17.1175 122.209C52.7428 122.93 85.8215 121.643 115.009 120.507C130.233 119.914 144.614 119.355 158.527 119.088C167.687 118.923 176.935 118.86 186.018 118.899C228.129 119.112 262.893 121.376 295.422 126.02C340.786 132.498 384.406 142.131 425.062 154.655C456.375 164.299 488.106 176.518 522.068 192.007C552.472 205.874 582.047 221.046 617.105 239.561C634.029 248.501 651.36 257.817 669.709 267.68C696.702 282.19 724.615 297.195 754.561 312.787C784.184 328.246 811.617 340.685 838.43 350.813C902.862 375.156 972.87 390.667 1046.51 396.919C1071.36 399.034 1097.14 400.255 1123.14 400.548C1154.54 400.865 1185.64 399.868 1215.56 397.586C1259.81 394.216 1312.1 388.796 1364.39 374.161C1389.37 367.17 1412.01 358.019 1433.6 346.182C1470.39 326.008 1499.2 301.037 1527.05 276.888C1543.46 262.663 1558.95 249.227 1575.54 237.192C1578.55 235.004 1581.56 232.807 1584.57 230.608C1602 217.88 1620.02 204.72 1639.99 192.879C1660.9 180.425 1682.34 170.844 1703.73 164.403C1729.07 156.773 1753.92 153.727 1777.59 155.348C1792 156.334 1806.4 158.681 1821.6 162.523C1856.95 171.37 1890.1 187.483 1922.15 203.064C1927 205.42 1932.01 207.856 1936.89 210.2C1970.79 226.464 2003.75 244.976 2034.86 265.218C2068.81 287.255 2102.06 312.363 2133.68 339.844C2161.63 364.132 2189.05 390.917 2215.17 419.452L2214.55 419.656Z" fill="#FFE492"/>
<path d="M2212.33 403.864C2160.84 341.338 2101.15 288.559 2034.92 246.99C2002.98 226.891 1968.79 208.994 1933.29 193.791C1931.6 193.067 1929.91 192.344 1928.22 191.618C1891.3 175.789 1853.13 159.422 1813.49 152.053C1798.13 149.198 1783.75 147.718 1769.55 147.526C1714.75 146.792 1668.02 170.661 1638.47 190.812C1621.08 202.601 1605.64 215.522 1590.71 228.017C1587.02 231.107 1583.2 234.301 1579.44 237.413C1565.09 249.265 1551.75 262.74 1537.62 277.009C1511.94 302.962 1485.38 329.797 1448.71 351.102C1427.49 363.427 1404.61 372.672 1378.76 379.365C1327.84 392.549 1276.13 396.01 1227.84 397.788C1198.06 398.883 1166.94 398.696 1135.34 397.234C1109.4 395.995 1083.75 393.876 1059.11 390.938C987.871 382.463 918.694 364.962 853.507 338.917C827.401 328.489 800.705 316.089 769.499 299.896C710.189 269.203 666.148 247.585 626.701 229.803C548.243 194.437 488.362 173.629 426.48 160.23C385.051 151.26 341.534 145.095 297.129 141.905C266.322 139.693 233.628 139.89 191.125 142.552C182.416 143.104 173.505 143.754 164.638 144.486C156.262 145.188 147.754 145.992 138.745 146.842C105.479 149.982 67.7725 153.541 24.6176 152.877C1.8714 152.527 -21.3622 151.568 -43.83 150.643C-69.3645 149.591 -95.7675 148.502 -120.8 148.354C-145.899 148.207 -169.359 149.397 -190.512 151.896C-266.174 160.83 -326.154 180.616 -350.956 204.822L-351.659 204.567C-345.218 198.278 -336.439 192.24 -325.568 186.618C-315.074 181.189 -302.58 176.124 -288.429 171.558C-260.942 162.688 -227.137 155.721 -190.673 151.416C-169.462 148.913 -145.95 147.718 -120.793 147.865C-95.7382 148.013 -69.3206 149.102 -43.775 150.156C-21.3145 151.082 1.90802 152.04 24.636 152.39C67.7139 153.053 105.38 149.497 138.609 146.362C147.623 145.51 156.138 144.708 164.517 144.004C173.395 143.272 182.313 142.622 191.03 142.068C233.599 139.404 266.348 139.204 297.221 141.422C341.688 144.617 385.267 150.79 426.755 159.774C488.721 173.19 548.664 194.019 627.192 229.416C666.653 247.205 710.71 268.829 770.034 299.53C801.218 315.711 827.885 328.098 853.962 338.515C919.061 364.523 988.135 382.001 1059.26 390.463C1083.87 393.396 1109.49 395.511 1135.4 396.749C1166.96 398.21 1198.04 398.396 1227.78 397.303C1276 395.528 1327.62 392.075 1378.43 378.921C1404.18 372.254 1426.98 363.041 1448.12 350.758C1484.71 329.499 1511.25 302.692 1536.91 276.768C1551.04 262.491 1564.39 249.004 1578.76 237.135C1582.53 234.025 1586.35 230.831 1590.03 227.741C1604.97 215.235 1620.42 202.305 1637.84 190.497C1657.12 177.345 1677.34 166.943 1697.93 159.576C1722.05 150.947 1746.15 146.733 1769.56 147.044C1783.85 147.235 1798.29 148.724 1813.73 151.592C1853.5 158.987 1891.73 175.377 1928.7 191.229C1930.39 191.955 1932.08 192.681 1933.77 193.402C1969.31 208.622 2003.54 226.541 2035.51 246.662C2101.8 288.267 2161.54 341.088 2213.07 403.657L2212.33 403.864Z" fill="#FFE492"/>
<path d="M1246.07 397.562C1244.01 397.562 1241.99 397.56 1239.99 397.554C1210.37 397.48 1179.26 396.111 1147.54 393.482C1121.69 391.298 1096.2 388.283 1071.79 384.526C1036.91 379.167 1001.9 371.466 967.733 361.637C934.739 352.145 901.51 340.376 868.966 326.653C837.078 313.208 807.293 298.227 784.906 286.677C732.525 259.727 682.687 237.201 636.777 219.723C562.419 191.416 496.155 174.16 428.235 165.418C387.261 160.144 343.3 157.362 300.973 157.362C300.317 157.362 299.665 157.362 299.009 157.365C262.647 157.438 228.125 161.446 196.24 165.766C187.941 166.898 179.357 168.134 170.724 169.445C165.994 170.17 161.256 170.918 156.244 171.709C120.89 177.296 80.8164 183.626 32.1325 183.107C2.48325 182.789 -27.7999 180.968 -57.0865 179.206C-75.9965 178.067 -95.5477 176.892 -114.198 176.181C-139.835 175.205 -163.427 175.518 -184.327 177.116C-259.586 182.861 -322.362 198.299 -352.256 218.413L-352.945 218.054C-337.611 207.738 -314.546 198.807 -284.391 191.506C-255.592 184.534 -221.029 179.371 -184.444 176.579C-163.49 174.979 -139.835 174.662 -114.139 175.642C-95.4707 176.353 -75.9085 177.531 -56.9912 178.669C-27.723 180.432 2.54184 182.253 32.1508 182.568C80.7101 183.087 120.714 176.766 156.009 171.19C161.026 170.396 165.763 169.649 170.497 168.923C179.137 167.613 187.729 166.374 196.035 165.242C227.974 160.915 262.556 156.902 299.005 156.826C342.006 156.736 386.755 159.527 428.43 164.892C463.483 169.405 497.467 176.049 532.316 185.202C565.878 194.018 600.21 205.161 637.268 219.271C683.215 236.762 733.089 259.305 785.503 286.273C807.872 297.816 837.635 312.787 869.49 326.216C935.527 354.062 1003.67 373.504 1072.02 384.007C1096.4 387.76 1121.85 390.769 1147.67 392.951C1179.35 395.576 1210.41 396.945 1239.99 397.017C1286.28 397.13 1340.03 396.204 1392.46 383.677C1418.99 377.336 1441.95 368.063 1462.64 355.331C1498.98 332.97 1523.06 304.27 1546.36 276.514C1558.35 262.237 1569.67 248.751 1581.97 237.077C1585.92 233.337 1589.9 229.484 1593.74 225.757C1606.74 213.167 1620.18 200.15 1635.67 188.118C1653.36 174.275 1672.35 163.047 1692.11 154.746C1715.01 145.121 1738.36 139.737 1761.5 138.741C1775.79 138.126 1790.29 138.754 1805.83 140.662C1847.38 145.76 1888.57 160.572 1930.62 176.603C1967.28 190.58 2003.77 208.388 2036.14 228.104C2072.1 249.942 2105.89 275.56 2136.56 304.247C2163.88 329.804 2188.91 357.937 2210.95 387.864L2210.11 388.081C2162.78 323.811 2104.03 270.114 2035.49 228.485C2003.16 208.797 1966.73 191.014 1930.13 177.061C1888.15 161.059 1847.04 146.275 1805.64 141.195C1790.19 139.298 1775.77 138.674 1761.57 139.285C1719.04 141.116 1674.59 158.575 1636.4 188.448C1620.94 200.459 1607.51 213.464 1594.52 226.042C1590.68 229.771 1586.69 233.626 1582.75 237.366C1570.47 249.018 1559.15 262.493 1547.18 276.757C1535.75 290.376 1523.93 304.46 1510.37 317.998C1494.99 333.346 1479.6 345.68 1463.3 355.709C1442.52 368.498 1419.46 377.811 1392.8 384.183C1369.29 389.802 1344.02 393.516 1315.55 395.542C1291.43 397.247 1267.22 397.562 1246.07 397.562Z" fill="#FFE492"/>
<path d="M1304.82 398.651C1286.14 398.651 1268.19 397.99 1252.14 397.321C1222.62 396.091 1191.52 393.538 1159.73 389.731C1133.98 386.604 1108.66 382.696 1084.45 378.113C1018.18 365.59 952.74 344.744 884.41 314.388C854.61 301.152 826.518 286.91 800.306 273.458C748.555 246.979 696.929 225.51 646.853 209.642C573.206 186.305 504.301 173.899 430.002 170.6C387.667 168.721 343.025 169.488 300.896 172.817C265.633 175.603 232.39 182.326 201.356 188.972C193.591 190.643 185.333 192.468 176.814 194.396C174.685 194.88 172.538 195.373 170.362 195.871C134.619 204.068 94.1755 213.343 42.271 213.343C41.3953 213.343 40.5233 213.34 39.6403 213.334C4.52426 213.123 -31.3282 210.15 -66.0045 207.273C-79.7519 206.132 -93.9683 204.954 -107.609 204.001C-134.254 202.14 -157.33 201.591 -178.16 202.325C-253.921 204.998 -317.869 215.811 -353.601 231.998L-354.213 231.522C-336.549 223.521 -311.007 216.574 -280.357 211.432C-250.21 206.376 -214.892 203.02 -178.223 201.727C-157.334 200.991 -134.199 201.541 -107.496 203.405C-93.8401 204.359 -79.62 205.539 -65.869 206.678C-31.2256 209.551 4.59387 212.521 39.6439 212.732C92.6294 213.054 133.732 203.625 169.992 195.308C172.164 194.811 174.315 194.317 176.444 193.831C184.97 191.901 193.232 190.075 201.004 188.404C232.089 181.746 265.395 175.014 300.753 172.219C342.948 168.886 387.664 168.117 430.068 169.998C466.887 171.633 501.992 175.492 537.387 181.794C573.84 188.285 609.799 197.218 647.318 209.109C697.457 224.999 749.149 246.495 800.954 273C827.156 286.447 855.23 300.68 885.004 313.903C953.242 344.218 1018.58 365.034 1084.75 377.537C1108.92 382.112 1134.21 386.015 1159.92 389.137C1191.67 392.94 1222.72 395.491 1252.2 396.717C1301.8 398.781 1354.57 399.842 1406.48 388.418C1433.8 382.405 1456.91 373.074 1477.15 359.89C1513.19 336.406 1535.63 304.372 1555.42 276.109C1565.38 261.889 1574.79 248.457 1585.17 237.007C1588.92 232.876 1592.69 228.606 1596.33 224.477C1607.74 211.558 1619.53 198.201 1633.48 185.725C1649.63 171.191 1667.39 159.137 1686.28 149.898C1707.97 139.287 1730.56 132.733 1753.43 130.423C1767.73 128.977 1782.28 128.747 1797.92 129.712C1841.61 132.413 1886 145.76 1927.46 159.783C1965.75 172.73 2003.54 189.932 2036.77 209.529C2073.73 231.264 2107.78 257.139 2137.98 286.429C2164.98 312.624 2188.82 341.43 2208.83 372.053L2207.89 372.268C2165.36 307.176 2105.94 251.047 2036.06 209.95C2002.9 190.391 1965.18 173.221 1926.97 160.3C1885.6 146.31 1841.33 132.995 1797.82 130.305C1782.27 129.345 1767.81 129.575 1753.61 131.009C1711.38 135.275 1669.02 154.822 1634.33 186.051C1620.4 198.5 1608.62 211.845 1597.23 224.751C1593.59 228.882 1589.82 233.152 1586.07 237.288C1575.71 248.711 1566.31 262.13 1556.36 276.335C1536.53 304.642 1514.06 336.727 1477.89 360.29C1457.55 373.546 1434.3 382.929 1406.83 388.976C1383 394.222 1357.28 397.26 1328.21 398.258C1320.36 398.54 1312.53 398.651 1304.82 398.651Z" fill="#FFE492"/>
<path d="M1341.7 401.005C1341.43 401.005 1341.17 401.005 1340.9 401.005C1314.5 400.965 1288.58 399.049 1264.28 397.089C1234.81 394.711 1203.73 390.972 1171.92 385.978C1146.29 381.912 1121.13 377.107 1097.13 371.701C1033.5 357.387 970.818 335.28 899.865 302.126C874.312 290.189 849.166 277.335 824.844 264.907C821.803 263.352 818.758 261.798 815.713 260.244C763.695 233.772 710.277 213.356 656.947 199.565C583.92 180.684 510.269 172.904 431.786 175.783C388.752 177.363 344.15 181.681 302.801 188.27C270.177 193.47 241.106 201.812 206.489 212.178C199.472 214.288 191.979 216.565 182.914 219.347L182.409 219.503C164.92 224.906 145.098 231.027 122.865 235.682C97.33 241.028 72.5575 243.601 47.1548 243.57C7.54312 243.511 -32.8821 239.139 -71.9735 234.908C-81.5513 233.872 -91.4588 232.8 -101.022 231.831C-128.447 229.056 -151.662 227.655 -171.994 227.548C-246.857 227.157 -313.55 233.737 -354.968 245.598L-355.444 245.011C-335.157 239.2 -307.79 234.484 -276.305 231.373C-244.762 228.254 -208.686 226.707 -171.983 226.898C-151.593 227.005 -128.319 228.409 -100.835 231.19C-91.2646 232.159 -81.3571 233.231 -71.7757 234.267C-32.7318 238.492 7.64203 242.86 47.1585 242.918C47.3344 242.918 47.5139 242.918 47.6898 242.918C104.215 242.918 147.278 229.619 181.903 218.925L182.412 218.769C191.481 215.985 198.974 213.708 205.994 211.598C240.67 201.215 269.792 192.857 302.519 187.642C343.937 181.04 388.612 176.716 431.72 175.134C470.126 173.725 506.352 174.799 542.476 178.419C581.402 182.32 618.992 189.041 657.387 198.97C710.819 212.786 764.329 233.235 816.431 259.751C819.476 261.305 822.521 262.86 825.562 264.416C849.873 276.84 875.012 289.689 900.542 301.617C971.405 334.73 1033.99 356.807 1097.52 371.097C1121.48 376.497 1146.61 381.293 1172.2 385.354C1203.97 390.341 1235 394.075 1264.43 396.448C1317.15 400.703 1368.75 403.654 1420.53 393.188C1448.62 387.508 1471.9 378.118 1491.67 364.48C1527.39 339.844 1546.91 305.707 1564.13 275.586C1572.19 261.485 1579.8 248.164 1588.39 236.97C1591.7 232.663 1595.01 228.209 1598.22 223.899C1608.24 210.426 1618.61 196.497 1631.32 183.363C1645.95 168.132 1662.49 155.25 1680.46 145.076C1700.96 133.48 1722.79 125.761 1745.37 122.137C1759.37 119.89 1773.66 118.795 1789.01 118.795C1789.34 118.795 1789.68 118.795 1790.01 118.797C1837.74 118.945 1886.86 131.805 1924.32 142.992C1964.22 154.911 2003.33 171.505 2037.41 190.98C2075.37 212.615 2109.7 238.744 2139.42 268.643C2166.09 295.474 2188.74 324.956 2206.72 356.274L2205.68 356.485C2178.92 309.886 2127.86 243.429 2036.65 191.451C2002.65 172.02 1963.63 155.465 1923.82 143.574C1886.47 132.418 1837.51 119.594 1790.01 119.449C1774.37 119.394 1759.87 120.485 1745.66 122.767C1703.83 129.484 1663.56 151.119 1632.27 183.687C1619.59 196.79 1609.24 210.705 1599.22 224.162C1596.02 228.474 1592.7 232.931 1589.39 237.24C1580.83 248.405 1573.22 261.709 1565.17 275.795C1547.92 305.97 1528.37 340.172 1492.51 364.903C1472.6 378.633 1449.17 388.086 1420.88 393.803C1396.91 398.647 1371 401.005 1341.7 401.005Z" fill="#FFE492"/>
<path d="M1371.03 404.064C1365.34 404.064 1359.53 403.955 1353.58 403.738C1327.53 402.788 1302.22 399.939 1276.43 396.854C1246.53 393.277 1216.33 388.492 1184.11 382.224C1158.61 377.222 1133.61 371.524 1109.8 365.285C1049.39 349.483 989.41 326.22 915.32 289.86C896.919 280.831 878.526 271.361 860.737 262.201C851.053 257.216 841.043 252.06 831.124 247.025C778.487 220.374 723.285 201.017 667.049 189.486C592.746 174.251 516.381 171.461 433.581 180.957C389.837 185.975 345.275 193.843 304.718 203.711C272.137 211.639 243.756 222.771 213.707 234.558L211.63 235.373C206.936 237.22 202.191 239.093 197.388 240.988C194.621 242.081 191.836 243.181 189.026 244.289C171.505 251.236 152.58 258.483 130.878 264.062C105.681 270.537 80.7579 273.723 54.6774 273.801C11.2588 273.927 -33.0283 267.943 -75.8534 262.149C-81.9649 261.321 -88.2891 260.467 -94.4263 259.657C-123.2 255.854 -145.884 253.666 -165.823 252.766C-239.404 249.448 -308.845 251.786 -356.345 259.183L-356.649 258.501C-309.024 251.084 -239.441 248.737 -165.732 252.062C-145.737 252.964 -122.995 255.159 -94.1662 258.968C-88.0252 259.781 -81.7011 260.635 -75.5859 261.463C-33.2848 267.184 10.4417 273.097 53.2851 273.097C53.7468 273.097 54.2085 273.097 54.6738 273.095C110.089 272.93 149.535 259.096 188.37 243.702C191.181 242.594 193.965 241.494 196.732 240.401C201.535 238.504 206.276 236.633 210.974 234.784L213.051 233.969C243.151 222.163 271.58 211.01 304.267 203.057C344.897 193.17 389.536 185.288 433.358 180.262C516.366 170.741 592.937 173.54 667.441 188.817C723.816 200.378 779.146 219.779 831.901 246.488C841.819 251.525 851.833 256.68 861.517 261.667C879.299 270.824 897.688 280.292 916.078 289.315C990.08 325.633 1049.98 348.863 1110.28 364.64C1134.06 370.868 1159.02 376.559 1184.48 381.553C1216.65 387.811 1246.81 392.59 1276.67 396.16C1321.99 401.582 1378.4 408.332 1434.57 397.936C1463.45 392.592 1486.88 383.144 1506.19 369.049C1541.57 343.233 1557.97 306.923 1572.45 274.89C1578.74 260.974 1584.68 247.829 1591.61 236.92C1594.31 232.669 1597.02 228.273 1599.63 224.021C1608.41 209.759 1617.49 195.012 1629.15 180.987C1642.3 165.048 1657.61 151.338 1674.64 140.238C1693.94 127.66 1715.03 118.779 1737.3 113.84C1751.6 110.669 1766.25 108.715 1782.1 107.866C1803.32 106.727 1825.91 107.944 1851.16 111.577C1872.52 114.654 1895.42 119.431 1921.17 126.183C1962.7 137.072 2003.11 153.059 2038.04 172.415C2077.02 193.948 2111.61 220.335 2140.85 250.841C2167.18 278.31 2188.64 308.468 2204.61 340.48L2203.47 340.68C2169.74 273.097 2110.7 213.523 2037.23 172.932C2002.39 153.628 1962.09 137.687 1920.68 126.83C1865.2 112.284 1821.21 106.479 1782.21 108.57C1766.46 109.413 1751.92 111.354 1737.72 114.5C1684.72 126.25 1650 157.312 1630.22 181.298C1618.59 195.288 1609.52 210.017 1600.75 224.262C1598.13 228.517 1595.42 232.915 1592.72 237.168C1585.81 248.044 1579.88 261.174 1573.6 275.073C1559.1 307.175 1542.66 343.561 1507.11 369.495C1487.65 383.7 1464.03 393.225 1434.92 398.612C1415.19 402.262 1394.15 404.064 1371.03 404.064Z" fill="#FFE492"/>
<path d="M1396.43 407.571C1357.68 407.571 1320.43 401.667 1288.56 396.617C1258.58 391.867 1228.4 385.93 1196.28 378.47C1170.93 372.537 1146.09 365.944 1122.46 358.871C1051.62 337.692 988.461 307.293 930.767 277.596C918.987 271.533 907.086 265.283 895.581 259.24C879.606 250.848 863.085 242.17 846.531 233.808C793.106 206.895 736.119 188.591 677.158 179.406C600.884 167.526 521.796 169.723 435.376 186.125C390.88 194.569 346.363 205.989 306.634 219.149C275.991 229.297 250.065 242.11 222.618 255.674C220.672 256.634 218.723 257.599 216.762 258.564L215.7 259.09C209.028 262.391 202.128 265.803 195.134 269.227C178.375 277.47 159.919 285.995 138.572 292.507C113.792 300.067 88.8111 303.838 62.192 304.033C15.4684 304.379 -32.153 296.588 -78.2024 289.054C-81.4304 288.526 -84.6437 288 -87.8424 287.481C-118.21 282.54 -140.363 279.61 -159.665 277.98C-231.399 271.926 -303.595 270.023 -357.742 272.759L-357.852 272C-303.617 269.258 -231.315 271.164 -159.485 277.226C-140.128 278.861 -117.928 281.796 -87.5053 286.747C-84.3066 287.266 -81.0933 287.792 -77.8616 288.322C-31.9001 295.841 15.6296 303.612 62.1737 303.273C119.981 302.847 160.692 285.173 194.313 268.641C201.308 265.216 208.207 261.804 214.879 258.505L215.942 257.979C217.902 257.012 219.851 256.05 221.797 255.089C249.292 241.501 275.262 228.667 306.007 218.484C345.809 205.3 390.411 193.861 434.984 185.401C475.955 177.626 514.439 173.136 552.629 171.676C595.23 170.048 637.235 172.402 677.48 178.671C736.629 187.885 793.784 206.241 847.359 233.228C863.924 241.595 880.449 250.274 896.428 258.668C907.933 264.712 919.826 270.959 931.602 277.02C989.237 306.684 1052.32 337.051 1123.03 358.191C1146.63 365.253 1171.43 371.837 1196.75 377.761C1228.81 385.21 1258.95 391.139 1288.89 395.882C1334.86 403.167 1392.07 412.233 1448.6 402.693C1478.26 397.686 1501.84 388.179 1520.69 373.628C1555.71 346.597 1568.81 308.054 1580.37 274.045C1585.01 260.381 1589.4 247.475 1594.81 236.877C1596.81 232.957 1598.82 228.906 1600.76 224.988C1608.36 209.664 1616.22 193.815 1626.96 178.619C1638.66 161.958 1652.73 147.416 1668.79 135.401C1686.91 121.843 1707.24 111.799 1729.21 105.547C1743.48 101.488 1758.18 98.674 1774.16 96.9421C1795.69 94.6104 1819.58 94.6886 1845.17 97.1746C1867.57 99.352 1892.07 103.457 1917.99 109.379C1961.14 119.238 2002.86 134.617 2038.66 153.853C2078.65 175.286 2113.51 201.927 2142.27 233.041C2168.25 261.15 2188.52 291.986 2202.49 324.691L2201.24 324.877C2171.64 255.578 2113.6 195.041 2037.8 154.418C2002.12 135.245 1960.53 119.916 1917.53 110.089C1861.79 97.3528 1814.97 93.2957 1774.39 97.6918C1758.53 99.4107 1743.93 102.205 1729.77 106.234C1677.49 121.109 1645.65 153.966 1628.15 178.912C1617.43 194.07 1609.58 209.896 1601.99 225.201C1600.05 229.119 1598.04 233.172 1596.04 237.096C1590.65 247.66 1586.26 260.548 1581.63 274.195C1576.06 290.556 1569.76 309.099 1560.61 326.483C1550.13 346.402 1537.4 361.974 1521.71 374.091C1512.64 381.097 1502.21 387.06 1490.71 391.814C1478.35 396.928 1464.3 400.835 1448.95 403.425C1431.38 406.391 1413.75 407.571 1396.43 407.571Z" fill="#FFE492"/>
<path d="M1419.33 411.419C1406.52 411.419 1393.1 410.681 1378.92 409.205C1351 406.3 1324.28 401.028 1300.7 396.38C1270.98 390.519 1239.94 383.228 1208.46 374.712C1183.27 367.858 1158.6 360.37 1135.12 352.451C1067.75 329.749 1009.71 299.563 946.214 265.328C940.572 262.286 934.841 259.183 929.301 256.18C907.482 244.36 884.923 232.139 861.938 220.591C807.626 193.363 748.859 176.115 687.267 169.327C609.575 160.763 525.427 168.151 437.172 191.29C391.884 203.163 347.407 218.132 308.55 234.579C279.293 246.964 255.209 261.565 229.711 277.024C227.121 278.595 224.519 280.17 221.903 281.752C215.392 285.694 208.379 289.925 201.245 294.161C186.285 303.072 168.053 313.227 146.27 320.948C121.886 329.593 96.8427 333.95 69.7142 334.265C20.052 334.845 -30.5005 325.092 -79.3895 315.661L-81.2509 315.302C-105.188 310.687 -130.51 306.023 -153.498 303.192C-223.569 294.563 -296.596 288.572 -359.123 286.322L-359.039 285.51C-296.446 287.761 -223.353 293.756 -153.22 302.394C-130.166 305.235 -104.8 309.905 -80.8258 314.527L-78.9645 314.885C-30.1817 324.295 20.2682 334.023 69.6886 333.448C126.763 332.783 166.181 313.894 200.274 293.58C207.408 289.347 214.414 285.116 220.925 281.177C223.541 279.597 226.142 278.019 228.733 276.45C254.275 260.965 278.402 246.338 307.755 233.912C346.685 217.432 391.247 202.435 436.618 190.54C478.026 179.686 518.773 172.206 557.722 168.312C602.225 163.863 645.896 163.933 687.523 168.52C749.35 175.335 808.334 192.644 862.829 219.966C885.831 231.524 908.402 243.75 930.232 255.576C935.772 258.577 941.503 261.68 947.145 264.722C1010.58 298.924 1068.56 329.078 1135.81 351.741C1159.25 359.646 1183.89 367.124 1209.04 373.969C1240.48 382.472 1271.46 389.752 1301.14 395.604C1347.66 404.779 1405.56 416.194 1462.65 407.447C1493.1 402.782 1516.84 393.218 1535.22 378.206C1569.85 349.924 1579.87 307.295 1587.92 273.041C1591.06 259.698 1594.02 247.096 1598.03 236.839C1599.3 233.606 1600.58 230.275 1601.81 227.052C1608.22 210.311 1614.86 192.998 1624.81 176.256C1640.17 150.204 1669.35 115.352 1721.14 97.2654C1735.45 92.2717 1750.2 88.5949 1766.25 86.0263C1808.24 79.2094 1858.23 81.4151 1914.84 92.5781C1959.61 101.407 2002.64 116.178 2039.3 135.294C2080.3 156.625 2115.43 183.523 2143.71 215.248C2156.69 229.799 2168.15 245.341 2177.8 261.441C2187.01 276.82 2194.61 292.789 2200.38 308.907L2199.04 309.077C2173.59 238.056 2116.53 176.556 2038.39 135.905C2001.87 116.86 1959 102.146 1914.4 93.3496C1858.06 82.2365 1808.33 80.0373 1766.61 86.8108C1750.68 89.3598 1736.03 93.0084 1721.84 97.9652C1670.41 115.926 1641.39 150.599 1626.1 176.524C1616.18 193.222 1609.56 210.511 1603.15 227.23C1601.91 230.453 1600.64 233.786 1599.37 237.022C1595.37 247.244 1592.41 259.828 1589.28 273.151C1585.23 290.388 1580.64 309.924 1572.79 328.363C1563.77 349.55 1551.84 366.011 1536.33 378.684C1527.48 385.914 1517.12 392.012 1505.56 396.806C1493.1 401.971 1478.78 405.817 1462.99 408.234C1449.14 410.359 1434.67 411.419 1419.33 411.419Z" fill="#FFE492"/>
<path d="M1440.44 415.484C1425.08 415.484 1408.89 414.304 1391.6 411.937C1363.58 408.106 1336.62 401.748 1312.83 396.137C1282.88 389.074 1251.87 380.602 1220.64 370.951C1195.62 363.182 1171.1 354.799 1147.79 346.03C1083.62 321.92 1028.59 290.845 970.323 257.949C967.44 256.322 964.556 254.692 961.665 253.062C934.57 237.781 906.555 221.978 877.349 207.375C822.092 179.801 761.544 163.608 697.387 159.244C616.8 153.761 529.857 166.281 438.967 196.449C393.504 211.539 347.868 230.56 310.466 250.007C282.224 264.69 259.573 281.212 235.592 298.705C232.752 300.776 229.905 302.854 227.036 304.935C221.305 309.101 214.487 314.041 207.349 319.093C194.129 328.474 176.117 340.395 153.964 349.364C129.969 359.08 104.87 364.032 77.2325 364.499C54.5155 364.836 29.4463 362.756 0.58844 358.139C-24.1877 354.175 -48.1541 348.994 -74.6743 343.127C-98.8824 337.705 -124.432 332.105 -147.354 328.407C-215.252 317.45 -286.971 307.856 -360.516 299.885L-360.252 299.031C-286.664 307.004 -214.904 316.607 -146.969 327.568C-123.985 331.277 -98.3988 336.886 -74.1613 342.312C-29.7094 352.15 25.6137 364.397 77.1922 363.63C136.161 362.63 174.058 341.365 206.224 318.532C213.358 313.484 220.173 308.547 225.9 304.383C228.769 302.302 231.616 300.224 234.452 298.155C258.473 280.634 281.165 264.084 309.499 249.353C346.978 229.867 392.701 210.809 438.252 195.691C529.417 165.431 616.661 152.879 697.555 158.381C728.571 160.491 759.037 165.392 788.101 172.945C819.285 181.049 849.63 192.412 878.294 206.713C907.533 221.331 935.567 237.142 962.677 252.434C965.568 254.066 968.455 255.694 971.338 257.321C1029.55 290.189 1084.53 321.233 1148.57 345.298C1171.86 354.053 1196.33 362.426 1221.32 370.182C1252.5 379.817 1283.47 388.279 1313.37 395.331C1360.37 406.413 1418.86 420.206 1476.69 412.207C1508.02 407.874 1531.91 398.251 1549.73 382.792C1584.05 353.264 1590.16 308.158 1595.07 271.916C1596.83 258.953 1598.49 246.71 1601.24 236.81C1601.81 234.767 1602.38 232.713 1602.95 230.649C1608.08 212.002 1613.4 192.718 1622.63 173.899C1635.82 146.832 1662.2 110.128 1713.06 88.9888C1727.25 83.0911 1742.05 78.5537 1758.32 75.1159C1780.93 70.2939 1806.13 68.0274 1833.21 68.3751C1857.93 68.6923 1884.33 71.1849 1911.67 75.7809C1958.05 83.5757 2002.4 97.7376 2039.92 116.735C2081.93 137.961 2117.33 165.12 2145.14 197.453C2157.9 212.289 2168.94 228.15 2177.97 244.596C2186.62 260.346 2193.45 276.675 2198.26 293.127L2196.82 293.275C2175.84 221.583 2118.3 157.477 2038.97 117.395C2001.61 98.4808 1957.45 84.3776 1911.27 76.6132C1854.32 67.0386 1801.61 66.8039 1758.81 75.9308C1742.66 79.3426 1727.97 83.8451 1713.9 89.6972C1663.39 110.691 1637.15 147.205 1624.04 174.138C1614.83 192.907 1609.52 212.163 1604.39 230.786C1603.82 232.85 1603.25 234.906 1602.69 236.949C1599.94 246.812 1598.29 259.04 1596.53 271.983C1591.6 308.33 1585.47 353.566 1550.93 383.283C1542.34 390.735 1532.07 396.971 1520.41 401.815C1507.86 407.026 1493.26 410.807 1477.02 413.054C1465.3 414.671 1453.16 415.484 1440.44 415.484Z" fill="#FFE492"/>
<path d="M1460.27 419.715C1442.77 419.715 1424.24 418.037 1404.27 414.669C1376.01 409.904 1348.88 402.461 1324.95 395.896C1294.71 387.599 1263.71 377.94 1232.81 367.192C1207.97 358.521 1183.62 349.24 1160.44 339.611C1103.36 315.907 1054.59 286.869 1002.94 256.124C994.499 251.098 985.768 245.902 977.106 240.793C946.658 222.844 920.658 208.043 892.749 194.159C836.507 166.22 774.182 151.08 707.5 149.159C623.711 146.745 533.961 164.39 440.748 201.604C394.442 220.093 348.847 242.758 312.365 265.427C284.881 282.505 263.395 301.096 240.649 320.777C237.831 323.216 235.002 325.662 232.155 328.111C227.084 332.481 220.372 338.24 213.443 344.014C184.285 368.37 146.19 393.445 84.7408 394.727C82.8245 394.764 80.9009 394.781 78.981 394.781C30.9969 394.781 -17.9911 383.518 -68.1075 370.943L-71.2366 370.152C-96.0604 363.867 -119.51 357.932 -141.216 353.612C-223.015 337.332 -302.125 323.589 -361.907 313.437L-361.479 312.548C-301.682 322.705 -222.55 336.45 -140.721 352.737C-118.957 357.068 -95.4815 363.011 -70.6248 369.302L-67.4993 370.093C-15.5471 383.129 35.1886 394.757 84.6859 393.806C145.454 392.536 183.23 367.655 212.172 343.482C219.097 337.712 225.802 331.958 230.873 327.59C233.72 325.139 236.545 322.694 239.363 320.256C262.145 300.544 283.664 281.923 311.236 264.79C347.792 242.073 393.479 219.362 439.876 200.837C482.939 183.644 526.017 170.442 567.912 161.596C615.98 151.445 662.971 146.951 707.573 148.236C774.599 150.165 837.24 165.379 893.746 193.449C921.695 207.354 947.721 222.17 978.198 240.135C986.864 245.244 995.595 250.442 1004.04 255.468C1055.63 286.182 1104.37 315.193 1161.33 338.849C1184.48 348.467 1208.79 357.733 1233.59 366.39C1264.45 377.125 1295.4 386.769 1325.6 395.053C1373.01 408.059 1432.01 424.244 1490.73 416.957C1522.82 412.974 1546.87 403.295 1564.23 387.369C1598.11 356.496 1600.15 308.852 1601.79 270.569C1602.32 258.078 1602.83 246.278 1604.45 236.771L1604.48 236.554C1608.11 215.264 1611.85 193.251 1620.45 171.531C1627.89 152.586 1638.25 135.554 1651.25 120.903C1665.91 104.385 1683.98 90.8601 1704.96 80.701C1719 73.9037 1733.86 68.5036 1750.37 64.1944C1794.99 52.4837 1849.66 50.6757 1908.49 58.9703C1932.16 62.3082 1955.51 67.3649 1977.9 73.9971C2000.41 80.6684 2021.49 88.8022 2040.54 98.1682C2083.57 119.293 2119.24 146.708 2146.56 179.654C2171.12 209.266 2188.26 243.047 2196.14 277.34L2194.6 277.464C2177.74 204.066 2121.23 138.974 2039.54 98.8788C2001.35 80.0991 1955.9 66.6087 1908.13 59.8743C1849.64 51.6275 1795.31 53.416 1751.01 65.0462C1734.62 69.3228 1719.89 74.6795 1705.95 81.4225C1666.77 100.391 1637.73 131.625 1621.97 171.746C1613.4 193.409 1609.66 215.392 1606.04 236.651L1606 236.869C1604.39 246.341 1603.88 258.123 1603.35 270.597C1601.7 308.997 1599.66 356.785 1565.53 387.875C1557.16 395.555 1546.96 401.926 1535.23 406.811C1522.58 412.079 1507.72 415.797 1491.04 417.868C1481.11 419.098 1470.88 419.715 1460.27 419.715Z" fill="#FFE492"/>
<path d="M85.8798 425.036C64.4233 425.036 41.0578 422.557 14.6879 417.493C-11.5135 412.463 -37.4256 405.518 -61.5275 398.764C-65.8914 397.534 -70.2222 396.306 -74.5238 395.087C-95.9363 389.017 -116.162 383.285 -135.064 378.819C-210.437 361.02 -282.281 345.021 -351.762 329.554L-363.274 326.989L-362.696 326.075L-351.183 328.639C-281.699 344.111 -209.843 360.109 -134.456 377.913C-115.502 382.39 -95.2512 388.129 -73.813 394.207C-69.515 395.426 -65.1842 396.654 -60.824 397.881C-11.3487 411.746 41.2154 425.182 92.1966 423.984C154.866 422.437 192.422 393.483 218.136 368.434C224.724 362.028 231.07 355.643 235.863 350.797C238.508 348.127 241.135 345.458 243.755 342.796C265.483 320.729 286.005 299.885 312.994 280.231C348.62 254.294 394.262 227.926 441.521 205.988C485.365 185.636 529.608 169.555 573.026 158.194C622.828 145.162 671.471 138.4 717.605 138.093C787.024 137.48 851.499 151.644 909.215 180.188C941.209 196.029 969.895 213.166 993.74 227.841C1006.71 235.827 1019.69 244.013 1032.24 251.929C1076.66 279.955 1122.59 308.933 1174.1 332.405C1197.11 342.892 1221.27 353.053 1245.88 362.604C1276.35 374.397 1307.29 385.223 1337.85 394.78C1385.61 409.718 1445.05 428.309 1504.77 421.711C1537.64 418.08 1561.84 408.345 1578.74 391.949C1612.18 359.677 1609.92 309.422 1608.1 269.042C1607.57 257.101 1607.06 245.821 1607.67 236.74C1609.04 216.267 1611.11 192.474 1618.28 169.17C1624.33 149.424 1633.45 131.559 1645.4 116.073C1658.92 98.5563 1676.25 83.8707 1696.89 72.423C1710.57 64.8368 1725.9 58.398 1742.45 53.2826C1766.06 45.9593 1792.57 41.3546 1821.22 39.5987C1848.06 37.9537 1876.35 38.8186 1905.32 42.1673C1929.74 44.9923 1953.82 49.6383 1976.88 55.9793C2000.08 62.3595 2021.71 70.3086 2041.17 79.6049C2063.6 90.3095 2084.22 102.95 2102.47 117.177C2119.75 130.657 2135.07 145.69 2148 161.858C2172.19 192.105 2188.11 226.583 2194.03 261.558L2192.39 261.656C2179.67 186.548 2124.18 120.472 2040.13 80.3677C2001.64 61.9792 1953.66 48.7539 1905 43.1278C1844.84 36.1718 1788.9 39.9834 1743.21 54.1496C1726.79 59.2237 1711.58 65.6125 1698.01 73.1379C1659.12 94.7078 1632.83 127.076 1619.9 169.346C1612.75 192.587 1610.68 216.339 1609.31 236.779C1608.71 245.827 1609.21 257.09 1609.75 269.016C1610.64 288.937 1611.66 311.517 1608.26 333.346C1604.31 358.675 1595.12 378.011 1580.15 392.46C1572 400.365 1561.88 406.874 1550.07 411.802C1537.32 417.126 1522.18 420.783 1505.08 422.672C1496.45 423.626 1487.83 424.058 1479.26 424.058C1427.93 424.058 1378.2 408.503 1337.08 395.643C1306.48 386.071 1275.49 375.229 1244.99 363.419C1220.33 353.855 1196.14 343.679 1173.1 333.176C1121.48 309.657 1075.5 280.649 1031.04 252.596C1018.49 244.682 1005.52 236.498 992.557 228.517C968.744 213.859 940.099 196.746 908.163 180.935C850.759 152.544 786.661 138.463 717.631 139.067C609.223 139.788 508.199 176.272 442.539 206.753C395.376 228.647 349.825 254.959 314.277 280.844C287.368 300.439 266.875 321.25 245.181 343.283C242.561 345.945 239.93 348.614 237.285 351.286C232.488 356.135 226.139 362.523 219.547 368.936C208.753 379.452 191.807 394.759 169.361 406.232C158.46 411.804 146.86 416.183 134.882 419.249C121.527 422.667 107.186 424.588 92.2662 424.956C90.1521 425.01 88.0233 425.036 85.8798 425.036Z" fill="#FFE492"/>
<path d="M92.7689 455.29C71.2867 455.29 47.9689 452.619 21.7381 447.169C-5.41959 441.528 -32.2696 433.596 -54.9499 426.58C-61.9189 424.42 -68.8731 422.229 -75.6003 420.11C-94.4041 414.189 -112.167 408.593 -128.915 404.025C-189.06 387.619 -248.813 371.601 -306.602 356.109C-325.717 350.985 -345.481 345.687 -364.637 340.541L-363.919 339.6C-344.763 344.746 -324.999 350.044 -305.884 355.168C-248.095 370.66 -188.335 386.68 -128.186 403.089C-111.394 407.67 -93.609 413.27 -74.7832 419.2C-68.0598 421.319 -61.1054 423.507 -54.1438 425.667C-7.10507 440.213 47.4559 455.612 99.7012 454.162C163.847 452.341 199.876 420.725 224.102 393.386C230.313 386.382 236.318 379.35 240.854 374.007C243.184 371.264 245.5 368.524 247.812 365.79C268.594 341.202 288.222 317.978 314.757 295.676C349.269 266.67 394.875 236.649 443.167 211.144C510.42 175.777 614.364 132.637 727.634 127.959C799.669 124.903 865.969 138.016 924.685 166.935C951.066 179.934 977.154 194.928 1009.28 215.557C1025.52 225.981 1041.63 236.786 1057.21 247.232C1097.74 274.41 1139.65 302.515 1186.88 325.973C1209.75 337.34 1233.74 348.395 1258.17 358.83C1287.76 371.453 1318.68 383.462 1350.09 394.522C1398.34 411.409 1458.38 432.43 1518.82 426.48C1551.95 423.285 1576.99 413.213 1593.25 396.546C1626.22 362.813 1619.15 307.626 1613.98 267.331C1612.53 256.022 1611.16 245.341 1610.89 236.725C1610.29 217.576 1610.34 192.327 1616.12 166.826C1626.09 122.637 1650.55 88.0937 1688.81 64.1617C1702.22 55.7302 1717.61 48.4048 1734.52 42.3875C1758.59 33.8169 1785.74 28.0518 1815.23 25.2551C1843.02 22.6213 1872.26 22.6626 1902.14 25.3789C1927.36 27.7215 1952.16 31.9677 1975.85 37.9958C1999.78 44.0847 2021.96 51.8426 2041.8 61.0542C2064.73 71.6979 2085.68 84.3821 2104.06 98.7569C2121.49 112.38 2136.75 127.626 2149.44 144.076C2173.26 174.96 2187.95 210.133 2191.92 245.793L2190.18 245.861C2181.62 169.038 2127.15 101.975 2040.73 61.8691C2001.55 43.674 1952.23 31.0767 1901.88 26.4003C1839.81 20.7612 1782.25 26.5958 1735.42 43.2741C1718.64 49.2414 1703.39 56.5081 1690.08 64.8723C1652.07 88.6457 1627.77 122.993 1617.85 166.965C1612.09 192.397 1612.04 217.596 1612.63 236.708C1612.91 245.294 1614.27 255.961 1615.72 267.255C1618.39 288.083 1621.42 311.694 1619.69 334.744C1617.67 361.583 1609.52 381.969 1594.76 397.065C1586.82 405.208 1576.78 411.857 1564.91 416.829C1552.05 422.22 1536.64 425.81 1519.11 427.501C1491.92 430.176 1462.66 427.773 1429.65 420.152C1400.96 413.526 1373.47 403.904 1349.21 395.416C1317.76 384.339 1286.79 372.314 1257.16 359.673C1232.69 349.223 1208.67 338.153 1185.76 326.771C1138.44 303.264 1096.48 275.13 1055.9 247.923C1040.33 237.479 1024.23 226.681 1008.01 216.266C975.934 195.674 949.894 180.708 923.575 167.739C865.207 138.985 799.328 125.951 727.751 128.987C614.969 133.648 511.369 176.655 444.317 211.915C396.121 237.368 350.61 267.326 316.172 296.272C289.71 318.511 270.111 341.702 249.362 366.253C247.05 368.989 244.734 371.729 242.404 374.472C237.864 379.82 231.855 386.858 225.637 393.868C201.198 421.451 164.807 453.35 99.7782 455.195C97.4662 455.258 95.1248 455.29 92.7689 455.29Z" fill="#FFE492"/>
<path d="M99.7962 485.546C41.0986 485.546 -20.49 464.165 -75.0876 445.209C-91.8651 439.385 -107.712 433.883 -122.771 429.23L-366 354.092L-365.154 353.13L-121.925 428.268C-106.825 432.931 -90.9601 438.44 -74.1606 444.272C-17.4525 463.96 46.8254 486.276 107.205 484.342C172.765 482.245 207.302 447.967 230.067 418.341C237.512 408.651 244.701 398.792 251.655 389.257C270.675 363.18 290.34 336.214 316.512 311.118C337.294 291.191 363.111 270.292 391.17 250.685C421.952 229.173 454.91 209.437 489.121 192.027C526.842 172.832 565.197 156.954 603.116 144.834C645.058 131.431 686.377 122.68 725.934 118.823C805.176 111.097 877.247 122.821 940.14 153.672C992.407 179.308 1036.83 211.009 1079.79 241.666C1117.19 268.352 1155.85 295.943 1199.64 319.53C1250.21 346.771 1304.95 371.911 1362.33 394.248C1410.68 413.069 1470.85 436.495 1532.86 431.23C1585.24 426.784 1615.52 406 1625.43 367.689C1633.87 335.102 1625.84 296.445 1619.4 265.385C1617.2 254.8 1615.13 244.802 1614.11 236.694C1608.49 191.999 1612.07 155.102 1625.06 123.899C1633.16 104.43 1645.12 87.0763 1660.6 72.319C1677.89 55.8341 1700.09 42.0916 1726.59 31.474C1749.5 22.2884 1775.33 15.6171 1803.36 11.6447C1830.04 7.86361 1858.12 6.59671 1886.84 7.87882C1943.32 10.3996 1998.57 22.6905 2042.41 42.4849C2065.84 53.0656 2087.12 65.7955 2105.65 80.3181C2123.21 94.0823 2138.42 109.544 2150.86 126.276C2174.3 157.797 2187.76 193.668 2189.79 230.008L2187.96 230.045C2183.64 152.657 2128.81 82.8649 2041.3 43.352C1948.36 1.39004 1816.43 -3.22773 1727.6 32.3758C1639.61 67.6447 1603.08 134.451 1615.93 236.614C1616.94 244.696 1619.02 254.681 1621.21 265.253C1627.67 296.38 1635.71 335.119 1627.24 367.854C1622.62 385.684 1613.35 400.013 1599.67 410.446C1591.97 416.312 1582.7 421.105 1572.1 424.691C1560.82 428.507 1547.7 431.069 1533.12 432.307C1527.16 432.814 1521.09 433.068 1514.93 433.068C1492.45 433.068 1468.52 429.698 1442.29 422.87C1412.74 415.177 1384.23 404.077 1361.32 395.159C1303.86 372.789 1249.05 347.616 1198.4 320.336C1154.51 296.699 1115.81 269.075 1078.37 242.362C1035.47 211.743 991.099 180.082 938.964 154.511C876.492 123.871 804.915 112.223 726.22 119.896C567.032 135.416 403.053 230.197 318.058 311.691C291.956 336.718 272.317 363.647 253.322 389.689C246.364 399.229 239.172 409.095 231.719 418.793C216.605 438.462 201.678 452.545 184.743 463.111C174.172 469.704 162.704 474.902 150.657 478.559C137.261 482.625 122.671 484.937 107.289 485.43C104.805 485.506 102.302 485.546 99.7962 485.546Z" fill="#FFE492"/>
</g>
</svg>
