<svg width="777" height="539" viewBox="0 0 777 539" fill="none" xmlns="http://www.w3.org/2000/svg">
<g clip-path="url(#clip0_5_313)">
<path d="M293.406 105.107C287.495 83.5579 335.166 65.0793 347.684 82.4326C349.425 79.9655 355.858 78.467 358.809 79.2238C361.761 79.9806 364.243 81.8726 366.665 83.7041C369.995 86.2622 373.446 88.911 375.489 92.5891C377.548 96.252 377.866 101.247 375.096 104.426C372.901 106.953 366.423 108.588 363.123 109.254C360.822 109.723 358.885 110.102 357.22 110.374C355.736 108.21 354.98 105.531 355.252 102.912C353.012 104.395 351.498 106.938 351.256 109.633C351.211 110.193 369.859 178.805 369.859 178.805C367.936 179.94 365.56 181 362.82 181.968C358.173 174.96 354.359 166.696 351.846 158.053C351.271 163.396 351.362 169.194 352.058 175.082C352.422 178.215 352.967 181.363 353.663 184.511C331.503 189.294 298.173 187.72 283.673 167.377C283.67 167.293 283.668 167.209 283.666 167.125C283.562 163.318 278.368 162.372 276.979 165.917C276.627 166.815 276.303 167.592 276.014 168.21C271.791 153.104 277.255 135.621 293.406 105.107V105.107Z" fill="#2F2E41"/>
<path d="M594.616 275.988C589.373 282.206 580.081 282.997 573.863 277.754C573.26 277.246 572.7 276.691 572.186 276.093L502.206 298.258L491.316 280.409L574.625 254.691C581.161 249.869 590.369 251.258 595.191 257.794C599.226 263.263 598.988 270.785 594.616 275.988H594.616Z" fill="#FFB6B6"/>
<path d="M346.785 220.601C346.785 220.601 377.776 185.744 391.275 200.551C404.774 215.358 446.891 280.243 446.891 280.243L545.204 259.501L554.711 285.446L443.081 321.621C434.689 324.34 425.492 321.52 420.067 314.564L346.785 220.601V220.601Z" fill="#EF3C44"/>
<path d="M414.093 538.35H260.383L260.243 537.15L260.153 536.35L258.833 525.15L256.963 509.2L256.243 503.07C256.193 502.76 256.143 502.46 256.103 502.15C255.473 498.16 255.113 494.15 254.983 490.15C254.793 484.65 255.043 479.16 255.633 473.74V473.71C255.953 470.78 256.363 467.88 256.873 465.01C257.513 461.32 258.283 457.69 259.173 454.14C260.193 450.02 261.353 446.01 262.623 442.14C264.083 437.61 265.683 433.27 267.333 429.17C267.513 428.73 267.693 428.29 267.863 427.86L267.873 427.85C276.573 406.64 286.453 392.15 286.453 392.15H398.433C398.433 392.15 403.613 414.88 406.183 433.65C406.593 436.62 406.933 439.48 407.183 442.14C407.633 447.05 407.763 451.27 407.373 454.14C407.133 455.92 406.693 457.18 406.013 457.76C399.853 463.02 406.903 474.18 406.903 474.18C406.903 474.18 412.183 482.25 407.583 486.79C406.673 487.69 406.153 488.85 405.903 490.15C405.503 492.3 405.853 494.8 406.403 497.01C406.953 499.23 407.713 501.16 408.133 502.15C408.323 502.59 408.443 502.84 408.443 502.84L409.223 509.01L409.983 514.95L411.273 525.15L411.663 526.95L413.673 536.35L413.843 537.15L414.093 538.35H414.093Z" fill="#2F2E41"/>
<path d="M336.452 172.912L289.454 177.098L280.792 204.054L271.352 205.421C255.221 207.756 245.62 224.675 251.888 239.721L260.194 259.66C260.194 259.66 247.994 297.318 262.978 313.14L269.354 382.829L254.97 428.769L423.103 434.197L394.464 376.571L393.615 340.791C393.615 340.791 411.916 276.12 394.949 255.549L388.329 197.039L353.839 191.866L336.452 172.912Z" fill="#EF3C44"/>
<path d="M368.27 138.33C373.113 117.441 360.105 96.5818 339.217 91.7389C318.328 86.8959 297.469 99.9033 292.626 120.792C287.783 141.68 300.79 162.54 321.679 167.383C342.567 172.226 363.427 159.218 368.27 138.33Z" fill="#FFB6B6"/>
<path d="M272.215 108.134C266.304 86.5851 313.975 68.1065 326.493 85.4599C328.234 82.9928 334.667 81.4942 337.618 82.251C340.57 83.0078 343.052 84.8999 345.474 86.7314C348.804 89.2894 352.255 91.9382 354.299 95.6163C356.357 99.2793 356.675 104.274 353.905 107.453C351.71 109.981 345.232 111.615 341.932 112.281C339.632 112.751 337.694 113.129 336.029 113.401C334.546 111.237 333.789 108.558 334.061 105.939C331.821 107.423 330.308 109.965 330.065 112.66C330.02 113.22 348.668 181.832 348.668 181.832C346.746 182.968 344.369 184.027 341.629 184.996C336.983 177.988 333.168 169.723 330.656 161.081C330.081 166.424 330.171 172.221 330.868 178.109C331.231 181.242 331.776 184.39 332.472 187.539C310.313 192.322 276.983 190.748 262.482 170.404C262.48 170.32 262.477 170.236 262.475 170.152C262.371 166.345 257.178 165.399 255.788 168.945C255.436 169.842 255.112 170.619 254.823 171.237C250.6 156.131 256.064 138.649 272.215 108.134L272.215 108.134Z" fill="#2F2E41"/>
<path d="M604.103 537.15H82.1033L1.10327 538.15L569.166 504.236C588.115 503.105 604.103 518.167 604.103 537.15V537.15Z" fill="#3F3D56"/>
<path d="M731.943 536.35V538.35H0.943298V0H2.9433V536.35H731.943Z" fill="#3F3D56"/>
<path d="M653.726 124.519H520.674C517.606 124.519 515.109 122.032 515.109 118.975C515.109 115.918 517.606 113.432 520.674 113.432H653.726C656.794 113.432 659.289 115.918 659.289 118.975C659.289 122.032 656.794 124.519 653.726 124.519Z" fill="#EF3C44"/>
<path d="M587.15 142.4C586.652 141.174 584.935 141.174 584.438 142.4C580.969 150.952 576.03 160.529 570.658 167.848C569.798 169.02 570.984 170.586 572.35 170.091L583.866 165.925V237.21H587.721V165.925L599.24 170.092C600.607 170.586 601.793 169.021 600.933 167.849C595.56 160.53 590.621 150.952 587.15 142.4Z" fill="#3F3D56"/>
<path d="M773.57 165.267H691.54C689.648 165.267 688.109 163.734 688.109 161.849C688.109 159.964 689.648 158.432 691.54 158.432H773.57C775.462 158.432 777 159.964 777 161.849C777 163.734 775.462 165.267 773.57 165.267Z" fill="#F2F2F2"/>
<path d="M732.524 176.291C732.217 175.536 731.158 175.536 730.852 176.291C728.713 181.564 725.668 187.469 722.356 191.981C721.826 192.703 722.557 193.669 723.4 193.364L730.499 190.795V234.744H732.876V190.795L739.978 193.364C740.821 193.669 741.552 192.704 741.021 191.981C737.709 187.469 734.664 181.564 732.524 176.291Z" fill="#F2F2F2"/>
<path d="M732.568 277.15C742.413 277.15 750.393 269.17 750.393 259.325C750.393 249.481 742.413 241.501 732.568 241.501C722.724 241.501 714.744 249.481 714.744 259.325C714.744 269.17 722.724 277.15 732.568 277.15Z" fill="#F2F2F2"/>
<path d="M510.57 64.2674H428.54C426.648 64.2674 425.109 62.7339 425.109 60.8491C425.109 58.9644 426.648 57.4316 428.54 57.4316H510.57C512.462 57.4316 514 58.9644 514 60.8491C514 62.7339 512.462 64.2674 510.57 64.2674Z" fill="#F2F2F2"/>
<path d="M469.524 75.2912C469.217 74.5356 468.158 74.5357 467.852 75.2914C465.713 80.5639 462.668 86.4685 459.356 90.9809C458.826 91.7033 459.557 92.6687 460.4 92.3639L467.499 89.7954V133.744H469.876V89.7953L476.978 92.3642C477.821 92.669 478.552 91.7036 478.021 90.9812C474.709 86.4687 471.664 80.5639 469.524 75.2912H469.524Z" fill="#F2F2F2"/>
<path d="M469.568 176.15C479.413 176.15 487.393 168.17 487.393 158.325C487.393 148.481 479.413 140.501 469.568 140.501C459.724 140.501 451.744 148.481 451.744 158.325C451.744 168.17 459.724 176.15 469.568 176.15Z" fill="#F2F2F2"/>
<path d="M262.911 503.708C267.117 496.746 264.883 487.693 257.922 483.486C257.247 483.079 256.541 482.726 255.81 482.432L254.334 409.04L233.934 404.458L236.324 491.613C233.856 499.351 238.128 507.626 245.866 510.094C252.341 512.16 259.388 509.519 262.911 503.708Z" fill="#FFB6B6"/>
<path d="M277.103 214.15C277.103 214.15 252.103 208.15 244.103 225.15C236.103 242.15 235.422 316.126 235.422 316.126L231.103 466.15L262.815 464.752L288.103 280.15L277.103 214.15Z" fill="#EF3C44"/>
<path d="M265.882 525.845C266.445 526.55 267.299 526.959 268.202 526.955H430.542C432.192 526.953 433.527 525.614 433.525 523.964C433.525 523.759 433.504 523.555 433.462 523.355L430.942 511.385C430.73 510.393 430.03 509.576 429.082 509.215C428.744 509.082 428.385 509.014 428.022 509.015H270.712C270.349 509.014 269.99 509.082 269.652 509.215C268.704 509.576 268.004 510.393 267.792 511.385L265.272 523.355C265.09 524.234 265.314 525.149 265.882 525.845Z" fill="#CCCCCC"/>
<path d="M203.732 257.885V445.145C203.736 450.114 207.763 454.141 212.732 454.145H490.232C495.201 454.141 499.228 450.114 499.232 445.145V257.885C499.22 252.921 495.196 248.901 490.232 248.895H212.732C207.768 248.901 203.744 252.921 203.732 257.885Z" fill="#E6E6E6"/>
<path d="M386.183 414.1C385.853 413.99 385.503 413.94 385.153 413.94H320.233C318.323 413.94 316.763 415.49 316.763 417.4V519.96H388.613V417.4C388.613 415.89 387.633 414.55 386.183 414.1ZM360.143 464.54C360.123 468.78 356.673 472.2 352.433 472.18C348.223 472.15 344.823 468.75 344.803 464.54V452.64C344.843 448.41 348.313 445.01 352.543 445.05C356.723 445.09 360.103 448.47 360.143 452.64V464.54Z" fill="#CCCCCC"/>
</g>
<defs>
<clipPath id="clip0_5_313">
<rect width="776.057" height="538.35" fill="white" transform="translate(0.943298)"/>
</clipPath>
</defs>
</svg>
