<svg xmlns="http://www.w3.org/2000/svg" viewBox="0 0 373.54 152.86"><defs><style>.cls-1,.cls-2,.cls-3{fill:#ef3c44;}.cls-2{font-size:50.5px;}.cls-2,.cls-3{font-family:PassionOne-Regular, Passion One;}.cls-3{font-size:114.3px;}.cls-4{fill:none;stroke:#ef3c44;stroke-miterlimit:10;stroke-width:8px;}</style></defs><g id="Layer_2" data-name="Layer 2"><g id="Layer_1-2" data-name="Layer 1"><path class="cls-1" d="M336,2.59c-.62,2.88-4.2,6.12-6.65,6.12A1.51,1.51,0,0,0,327.66,10c0,.79.79,1.31,2,1.31,2.45,0,5.25,2.89,6.47,6.56l.87,2.62,1.49-3.58c1.4-3.33,2.89-4.64,6.91-5.95,2.1-.7,1.83-2.27-.35-2.27-1,0-3-1.14-4.37-2.54s-2.54-3.41-2.54-4.37C338.15-1,336.66-.38,336,2.59Zm3,9.27L337.46,4h0l-4.2,6,1.83-1.84L339.46,7h-2l-5,1Z"/><path class="cls-1" d="M344.71,15.27c-2.36,7.17-3.94,9.09-8.39,10-3.85.79-4.11,2.36-.53,3.06a11.25,11.25,0,0,1,8.13,8.22c.7,3.59,2.27,3.15,3.06-.79a10.86,10.86,0,0,1,7.87-7.51c3.85-.79,3.85-1.84,0-2.89-3.58-1-8-5.16-8-7.69a5.57,5.57,0,0,0-.87-2.8C345.41,13.78,345.15,13.87,344.71,15.27Zm3.41,14.25L352.46,28c-1.49,1.53-5.52-7.47-7-9l-5,9,2.11,1.56c-1.52-1.46,9.4-1.07,10.89-2.56l-7-7-3.81,4.05a3.91,3.91,0,0,1,5.47-.13h0l.12.12a3.78,3.78,0,0,1,.08,5.26Z"/><path class="cls-1" d="M322.44,27.42c-1.58,3.67-3.59,5.68-5.95,5.77-2.1,0-2.8,1.66-1,2.27,4,1.31,5.51,2.62,6.82,5.95L323.83,45l1.84-3.93c1.49-3,2.62-4.11,4.81-4.81,1.49-.44,2.8-1.23,2.8-1.75s-1.31-1.31-2.8-1.75c-2.19-.7-3.32-1.83-4.72-4.81l-1.93-3.84ZM326,36.25l-1.92,1.83-2-1.74-1.93-1.75-.7,1.41,5,4,5-5-1.6-.59Z"/><text class="cls-2" transform="translate(5.01 44.36)">SNEAKERS</text><text class="cls-3" transform="translate(0 130.22) scale(1.01 1)">CLEAN<tspan class="cls-4" x="253.18" y="0">UP</tspan></text></g></g></svg>