<svg xmlns="http://www.w3.org/2000/svg" viewBox="0 0 1583.16 521.34"><defs><style>.cls-1{fill:#3f3f3f;}.cls-1,.cls-2{stroke:#000;stroke-miterlimit:10;stroke-width:25px;}.cls-2{fill:none;}.cls-3,.cls-4{isolation:isolate;font-family:PassionOne-Regular, Passion One;}.cls-3{font-size:160.4px;}.cls-4{font-size:328.59px;}</style></defs><g id="Layer_2" data-name="Layer 2"><g id="Layer_1-2" data-name="Layer 1"><path class="cls-1" d="M105.36,320s114.38,23.73,162.76,171.73l111.13-.17s-14.47-159-156.63-240.93S105.36,320,105.36,320Z"/><path class="cls-1" d="M262.68,298.29c-6-22-19-27-35.39-37.9-47.36-31.51-72.91-36.06-97.54-57.71-5-4.37-9.68-13.7-12-19-3.94-9,2.07-26.91,11-31,1.34-.61.88-2.17,4-3,.81-.21,4.56-2.58,6-3,11-3,36.54,1.88,47,8,22.33-34.66,35.67-61.33,58-96,0,0-133.27-24.5-186.3,30.5-46.32,48-54.75,122.78-24.1,172,31.36,50.37,82.42,75.3,115.42,86.79"/><path class="cls-2" d="M304.75,320.68c-3.12-126.84,176.6-267.5,176.6-267.5C434,74.37,363,84.71,297.75,72.68c0,0-139,192-144,308"/><path class="cls-2" d="M154.35,374.18c-1.38,21.17-22,38-131.72-.46L13.35,476.18s176,57,231-24c37.33-43.89,27.33-108.89,18.33-153.89"/><text class="cls-3" transform="translate(522.28 212.21) scale(1.01 1)">SNEAKERS</text><text class="cls-4" transform="translate(513.88 456.28) scale(1.01 1)">CLEANUP</text></g></g></svg>