<svg xmlns="http://www.w3.org/2000/svg" viewBox="0 0 1779.23 736"><defs><style>.cls-1{fill:#101f3b;}.cls-2{fill:#e9282a;}.cls-2,.cls-3{stroke:#fff;stroke-miterlimit:10;stroke-width:25px;}.cls-3{fill:none;}.cls-4,.cls-5{isolation:isolate;font-family:PassionOne-Regular, Passion One;}.cls-4{font-size:160.4px;fill:#fff;}.cls-5{font-size:328.59px;fill:#e8292c;}</style></defs><g id="Layer_2" data-name="Layer 2"><g id="Layer_1-2" data-name="Layer 1"><rect class="cls-1" width="1779.23" height="736"/><g id="Layer_2-2" data-name="Layer 2"><g id="Layer_1-2-2" data-name="Layer 1-2"><path class="cls-2" d="M215.65,418.77S330,442.5,378.41,590.5l111.13-.17s-14.47-159-156.63-240.93S215.65,418.77,215.65,418.77Z"/><path class="cls-2" d="M282,453.62c3.77.93,6.48,1.48,7.86,1.75l.7.13"/><path class="cls-2" d="M275.29,451.86c2.51.7,4.77,1.28,6.74,1.76"/><path class="cls-2" d="M264,448.46c4.14,1.35,7.93,2.48,11.27,3.4"/><path class="cls-2" d="M373,397.11c-6-22-19-27-35.39-37.9C290.22,327.7,264.67,323.15,240,301.5c-5-4.37-9.68-13.7-12-19-3.94-9,2.07-26.91,11-31,1.34-.61.88-2.17,4-3,.81-.21,4.56-2.58,6-3,11-3,36.54,1.88,47,8,22.33-34.66,35.67-61.33,58-96,0,0-133.27-24.5-186.3,30.5-46.32,48.05-54.75,122.78-24.1,172,31.36,50.37,82.42,75.3,115.42,86.79"/><path class="cls-3" d="M415,419.5C411.92,292.66,591.64,152,591.64,152c-47.35,21.19-118.35,31.53-183.6,19.5,0,0-139,192-144,308"/><path class="cls-3" d="M264.64,473c-1.38,21.17-22,38-131.72-.46L123.64,575s176,57,231-24C392,507.11,382,442.11,373,397.11"/><text class="cls-4" transform="translate(632.57 311.03) scale(1.01 1)">SNEAKERS</text><text class="cls-5" transform="translate(624.17 555.1) scale(1.01 1)">CLEANUP</text></g></g></g></g></svg>