<svg xmlns="http://www.w3.org/2000/svg" viewBox="0 0 577 577"><defs><style>.cls-1{fill:#222b60;}.cls-2,.cls-3,.cls-4{fill:#ef3c44;}.cls-3{font-size:80.46px;}.cls-3,.cls-4{font-family:PassionOne-Regular, Passion One;}.cls-4{font-size:146.67px;}.cls-5{fill:#232c60;stroke:#ef3c44;stroke-miterlimit:10;stroke-width:6px;}</style></defs><g id="Layer_2" data-name="Layer 2"><g id="Layer_1-2" data-name="Layer 1"><rect class="cls-1" width="577" height="577" rx="288.5"/><path class="cls-2" d="M284.8,117.48c-.9,4.26-6.2,9-9.82,9a2.22,2.22,0,0,0-2.46,1.94c0,1.16,1.16,1.94,3,1.94,3.62,0,7.76,4.26,9.57,9.69l1.3,3.88,2.19-5.3c2.07-4.91,4.27-6.85,10.22-8.79,3.1-1,2.71-3.36-.52-3.36-1.42,0-4.4-1.68-6.46-3.75s-3.75-5-3.75-6.47C288,112.17,285.84,113.08,284.8,117.48Zm4.4,13.7L287,119.56h0l-6.21,8.91,2.71-2.72L290,124h-3l-7.39,1.48Z"/><path class="cls-2" d="M297.73,136.22c-3.49,10.61-5.81,13.45-12.41,14.75-5.69,1.16-6.08,3.49-.77,4.52s11,6.6,12,12.16c1,5.3,3.36,4.65,4.53-1.17,1.16-5,6.2-9.95,11.63-11.12,5.69-1.16,5.69-2.71,0-4.27-5.3-1.42-11.76-7.62-11.76-11.37a8.13,8.13,0,0,0-1.3-4.14C298.77,134,298.38,134.16,297.73,136.22Zm5,21.08,6.41-2.24C307,157.32,301,144,298.84,141.75l-7.39,13.31,3.12,2.31c-2.24-2.17,13.9-1.59,16.1-3.79l-10.35-10.35-5.63,6a5.77,5.77,0,0,1,8.09-.19h0l.18.18a5.59,5.59,0,0,1,.12,7.77Z"/><path class="cls-2" d="M264.79,154.2c-2.32,5.43-5.3,8.4-8.79,8.53-3.1,0-4.14,2.46-1.42,3.36,5.95,1.94,8.15,3.88,10.08,8.8l2.2,5.3,2.72-5.82c2.2-4.4,3.88-6.08,7.11-7.11,2.2-.65,4.14-1.81,4.14-2.59s-1.94-1.94-4.14-2.58c-3.23-1-4.91-2.72-7-7.12l-2.85-5.69Zm5.31,13.06L267.25,170l-3-2.58-2.85-2.59-1,2.09,7.39,5.92,7.4-7.4-2.37-.87Z"/><text class="cls-3" transform="translate(138.9 262.49)">SNEAKERS</text><text class="cls-4" transform="translate(54.93 370.35) scale(1.01 1)">CLEAN<tspan class="cls-5" x="324.88" y="0">UP</tspan></text></g></g></svg>